<svg xmlns="http://www.w3.org/2000/svg" viewBox="0 0 1632.65 1316.22"><defs><style>.cls-1{fill:#ea3d3d;}.cls-2{fill:none;stroke:#ea3d3d;stroke-linecap:round;stroke-linejoin:round;stroke-width:3px;}</style></defs><g id="Layer_2" data-name="Layer 2"><g id="Layer_1-2" data-name="Layer 1"><path class="cls-1" d="M1191,786q-20.13,10.68-40.19,21.3c-19.92,10.59-40,21-59.68,31.9-8.69,4.81-13,13.62-17.62,22.09-4.86,8.94-2.41,17,.45,25.92,3,9.2,3.8,18.46-3.32,27.52-4.16,5.29-4.93,13-1.84,20.35a105,105,0,0,1,5.54,17.89c.56,2.46-.78,5.32-1.1,8-.54,4.54-1.92,9.25-1.21,13.6,1.18,7.28.17,13.11-5.13,18.61-4.63,4.79-7.23,10.57-3.14,17.45.88,1.47.68,4.14,0,5.87-1.86,4.67-4.43,9.06-6.4,13.69-2.73,6.38-2.6,12.49,2.4,18,3.59,3.92,2.88,8.47,1.06,12.75-3.09,7.29-6.82,14.14-6.51,22.62.13,3.5-4.06,7-4.65,10.71-1.24,7.86-1.05,16-2.14,23.85-.63,4.53-1.6,9.7-4.32,13.05-2.52,3.11-7.49,4.35-11.51,6.11-3.44,1.49-7,3.14-10.62,3.67-8,1.17-16.17,1.84-24.28,2.4-6.06.43-12.17.13-18.2.73-1.3.12-3.3,2.64-3.37,4.13-.35,8-.38,16,0,24,.06,1.52,2,3.36,3.6,4.29,1.37.82,3.37.77,5.1.78,25.57.08,51.14,0,76.71.17,17.34.08,34.68.41,52,.54,11.13.07,22.27.21,33.4-.14,7.42-.23,3.44,5.39,4.4,8.2,1.16,3.4-1.77,3.62-4.46,3.68-14.71.33-29.42,1-44.14,1.12-19.38.23-38.85-.94-58.12.57-12.73,1-25.36-.17-38,.8-8.32.63-16.74.18-25.11-.13-3.81-.14-5.58,1.07-5.45,4.94.22,6.43.25,12.86.55,19.28.28,6.17-.69,7.56-5.39,8-4.33.4-5.74-1.21-5.8-5.59-.08-7.28-.92-14.55-1.45-21.82-.24-3.35-2.17-4.28-5.33-4.11-8.68.47-17.38.91-26.07,1-23.13.29-46.27.09-69.39.69-14.75.39-29.46,2.09-44.2,2.77q-27.62,1.29-55.26,1.83c-31.1.58-62.2.74-93.3,1.3-29.2.53-58.4,1.31-87.6,2.07-13.19.34-26.38,1.09-39.57,1.29-14.58.23-29.17.1-43.76,0-11.29,0-22.57-.45-33.86-.31-12.2.15-9.58.3-10.32-10.36a18.9,18.9,0,0,1,3.76-.89q33.12-1,66.25-1.82c22.59-.56,45.2-.84,67.78-1.64,8.11-.29,9.65-3.12,8-11.32a59.34,59.34,0,0,1-.59-6l1.2-.71c.95.9,2.28,1.63,2.76,2.73a29.58,29.58,0,0,1,1.89,6.5c1.6,8.57,1.76,9.15,10.59,8.86,25-.82,50-2.14,75-3,8.49-.29,17,.54,25.5.42,16-.22,32-.55,48-1.24,11.28-.49,22.52-1.77,33.79-2.43,6.06-.36,12.15,0,18.21-.25a110,110,0,0,0,14.52-1.24c1.12-.19,2.54-2.74,2.62-4.26.43-8.32.17-16.68.78-25,.38-5.3,4.05-7.64,9.44-7.16,4.49.41,6.65,3.35,6.27,9-.34,5-1.08,10-1.38,15.06a22.64,22.64,0,0,0,.54,7.72c1.07,3.56,4.07,3.76,7.27,2.94,3-.76,3.25-2.53,3.23-5.45-.1-10.39.18-20.78.76-31.15.09-1.58,2.85-4.46,3.84-4.25,1.9.42,4.7,2.49,4.84,4.08.38,4.22-.73,8.54-.76,12.82a126.29,126.29,0,0,0,.84,19c.25,1.69,3.9,4,6,4.1q24.75.57,49.53.23c11.26-.16,22.5-1,33.75-1.52,3.18-.15,4-1.64,3.55-4.82-.82-5.32-1-10.74-1.69-16.08a17.41,17.41,0,0,0-1.77-4.52c.74-1.79,2.14-3.53,1.75-4.63-.58-1.65-2.19-3.62-3.78-4.1-3.12-.94-6.51-.95-9.8-1.32-18.47-2.11-36.94-4.42-54.23-11.72-3.34-1.41-6.33-4.55-8.54-7.57-3.58-4.88-6.24-10.41-9.54-15.51-5.79-9-3.52-17.81-.08-26.79a65.16,65.16,0,0,0,3.33-11.5c1-5.59-2.27-9.52-5.94-13.19-4.66-4.67-9.38-9.29-13.79-14.18-5.1-5.65-4.8-12.41-.17-18.45,2.13-2.78,3.51-6.19,5-9.44,2-4.43,3.36-9.14,5.6-13.43,4-7.64,3.59-13-1.92-19.41a58.6,58.6,0,0,1-3.87-5.56c-3.47-5.1-4.55-5.32-10.09-2.14-9.79,5.62-19.54,11.33-29.41,16.81-12,6.66-24.11,13-36.05,19.69s-23.5,13.43-35.11,20.39c-1.93,1.15-4.69,2.46-3.4,6.15.3.87-2.14,3-3.63,4.08-.81.62-2.27.37-4.16.61,1.32,3.91,2.7,7.37,3.66,10.94,1.46,5.44-.19,8.4-5.67,9.66a85.47,85.47,0,0,1-11.86,1.52c-4.27.37-6,2.42-6,6.78,0,7.62-1.92,9-9.14,7-5.44-1.52-6.68-.66-8.77,4.8-.72,1.87-2.36,4.48-3.94,4.77-18.4,3.37-36.84,6.57-55.33,9.34-5.71.86-12-.88-17.38.64a225,225,0,0,0-31.1,11.34c-13.07,5.87-26.28,5-39.46,2-7.13-1.68-13.84-5.22-20.71-8-4.88-2-7.49-.86-7.13,4.24,1.06,15.35-.39,31,4.76,45.91a36.83,36.83,0,0,1,2.31,7.88c-5.93-.84-6.2-6-7-9.59-1.84-8.46-2.46-17.17-3.81-25.75a11.84,11.84,0,0,0-3.17-5.94c-6.49,17.62,1.9,34.61.36,52.29-1.34-3.33-3-6.57-4-10-4-14.48-6.81-29.06-5.27-44.27.66-6.5-1.52-11.8-8-15.56-14-8.19-24.87-19.46-26.37-36.5-1-10.82.05-21.82.06-32.74,0-5-.71-10-.32-15,.52-6.66,2.52-13.25,2.61-19.9.41-29.51.29-59,.57-88.54,0-3.74,1.48-7.44,2-11.2,1.84-13,3.38-26.15,5.43-39.17a80.92,80.92,0,0,1,4.15-15,12.53,12.53,0,0,1,4.61-6.07,19.75,19.75,0,0,0,9.33-13.91c2.21-12.85,9.43-23.15,16.72-33.17a147.32,147.32,0,0,1,21.36-23.48c6.53-5.77,14.7-9.67,22.06-14.54,7.93-5.26,16-10.37,23.48-16.21,2.82-2.19,4.71-6,6.09-9.49,2.71-6.84,8.06-10.24,15.55-9a26.23,26.23,0,0,0,5.65.74c6.07-.4,7.22-2.77,5.45-8.58-3.19-10.49-4.82-20.83,2.45-30.76,4.5-6.14,1-15.38-6.62-19.13-9.94-4.91-11.89-8.7-10.27-20.05a98.86,98.86,0,0,1,13-36.55c1.1-1.86,4.86-3.29,7.17-3,3.7.44,5.38.24,4.88-4-.54-4.47-1-9-1.16-13.45-.2-4.83.27-9.7-.16-14.5-.83-9.39-1.46-18.88-3.36-28.08-1.84-8.92-4.09-18-8-26.17-7.66-15.7-16.45-30.88-25.16-46.05-7-12.25-7.14-24.71-2.72-37.66,2.12-6.24,2.79-12.45-.11-18.74-1.75-3.8,3.22-14.17,8-15.52,15-4.24,25.82-14.57,37.38-24a170.58,170.58,0,0,1,19.13-13.42c6.21-3.8,13-3.21,19.57-.44a35.14,35.14,0,0,1,7,3.5c12.85,9.32,26.59,8.06,41,4.54,8.87-2.16,18.15-3.86,27.22-3.73,16.81.24,18.08,7.4,20.34,18.24,3.41,16.39,5.56,32.84,4.56,49.87-1.48,25.3-1.89,50.74-1.23,76.08.42,16.26,3.85,32.43,5.39,48.69.6,6.3-.41,12.74-.45,19.12a18.07,18.07,0,0,0,1.06,7.05c7.44,17.11,8.65,35.25,9.25,53.51,0,1-.63,2-1.84,3.09-3.31-15.41-2.72-31.52-9.35-47a75.72,75.72,0,0,0-6.6,4.13c-3.12,2.45-4.68,1.77-5-2.09s-.54-8-1-11.93c-.55-4.88-3.69-6-7.9-4.8-5.15,1.42-10.24,3.06-15.93,4.77l-3-3.92c-.55.13-1.33.09-1.49.39-6,11-15.95,13.09-27.31,12.57-1.69-.08-3.48,1.74-5.13,2.63l-5-12.42-2.13-.11-5.45,9.65c-4.49-5.74-8.39-1.37-13.08.65-9.19,4-14.25,11.12-19,19.42a77.25,77.25,0,0,0-10.38,45c.31,4.56,1.62,9.07,2.56,13.58.72,3.4-1,5.1-3.93,6.12-3.45,1.21-6.94,2.31-10.33,3.67-4.82,1.94-6.15,4.87-3.32,9,6.93,10,14.27,19.71,24.77,26.4a29.87,29.87,0,0,0,3.32,1.49c.59-6.1-8.24-9.94-3.74-16.32,6.89,9.37,13.48,18.32,20.09,27.26A10,10,0,0,0,683,728c9.5,5.76,19,11.42,28.61,17.08a3.84,3.84,0,0,0,2,.56c2.32-.12,5.1.3,6.76-.85.88-.61.52-4.43-.47-6.08-2.39-4-5.49-7.5-8.27-11.24-1.44-1.93-2.79-3.91-4.19-5.87l1.59-1.48c2.56,2,5.4,3.84,7.63,6.2,4.3,4.54,8.23,9.42,12.38,14.1a12.17,12.17,0,0,0,3.2,2.66c8.8,4.76,27.38-1.67,31.9-10.68,6.43-12.81,9.16-26.54,11.1-40.55.43-3.08,1.54-6.08,1.79-9.17.15-1.85-.19-4.37-1.36-5.51-.93-.91-3.45-.23-5.26-.16a2,2,0,0,0-1.42.59c-5.94,8.27-16.66,7.26-24.21,12.45a5.44,5.44,0,0,1-4.6,0c-7.38-3.72-14.66-7.67-21.91-11.66a28.52,28.52,0,0,1-4-3.26c1.77-.59,3.68-1.93,5.3-1.63,7.17,1.3,14.2,3.62,21.41,4.5,5.59.69,11.41.06,17.05-.6,1.6-.19,3-2.51,4.42-3.85-1.37-1.14-2.58-2.67-4.15-3.29-1.89-.75-4.32-.25-6.09-1.13A40.93,40.93,0,0,1,745,664a28.34,28.34,0,0,1-3.14-3.57,20.45,20.45,0,0,0-3,3.84c-.61,1.32-.54,3-.92,5.43-13.11-6.85-24,2-36,3.76-5.43.8-11,.66-16.52.86-2.37.08-4.75-.21-7.11-.06-4.68.3-6.67-2-4.79-6.38a16.6,16.6,0,0,1,4.53-5.54c4.48-3.85,9.27-7.32,13.75-11.16,5.84-5,13-4.77,19.82-6.22l1,1.38a38,38,0,0,1-3.82,3.7c-5.56,4.11-11.32,7.95-16.74,12.23-1.35,1.06-1.71,3.38-2.52,5.11l1,1.07c2.72-.83,5.5-1.52,8.14-2.53,5.85-2.23,11.54-4.88,17.46-6.89,7.36-2.49,11.93-7.44,14-15.8a79.78,79.78,0,0,1,7.24,4.43c4.48,3.49,9,3.83,13.46,1.25,4.94-2.88,4.4-7.07,3.11-11.41-.83-2.81-2.74-5.38-3.16-8.21-.75-5-1.4-10.28-.73-15.26.29-2.14,3.66-4.77,6.14-5.57,8.63-2.77,20.55,7,19.85,16a4,4,0,0,1-2.83,2.62c-3.94.31-7.92.12-12.15.12,0-6.18,5-6,8.82-8.3a60.27,60.27,0,0,0-7.07-3.79c-5-1.88-9.85,1.33-9,6.52,2,12.41,4.59,25.32,16.86,31.7,5.74,3,8.72,6.35,10.54,12.06.36,1.1,4.13,2.08,5.81,1.54,2.33-.76,4.46-2.78,6.09-4.74.86-1,.48-3.12.73-5.33L801,666c-1.31,7.49-2.38,14.39-3.74,21.23-1.27,6.43-2.23,13-4.38,19.15-4.52,12.86-9.72,25.48-14.65,38.19-.25.65-.59,1.26-.84,1.91-3.66,9.6-1.94,12.07,8.26,11.68,6.6-.25,13.21-.43,19.79-1a31.86,31.86,0,0,0,8.57-2.08c7.5-2.84,8.18-4.21,6.13-11.91s-2-14.2,4.43-20.47c3.68-3.58,5.94-9.29,7.26-14.44,1.85-7.26-3.09-12.42-7.79-17.25-5.82-6-9.52-12.44-5.25-21a5.12,5.12,0,0,0,.12-3.56c-2.85-8.54,1.26-15.09,5.67-21.78a65,65,0,0,0,6.27-12.47c1.5-3.92.67-7.58-3.65-9.63-1.1-.52-2.09-1.25-3.17-1.81-10.37-5.44-14.46-14.82-10.81-26,2.1-6.42,5.36-12.48,7.31-18.94a97.91,97.91,0,0,0,3.73-18.72c.87-9,.85-18.18,6.31-25.84a20.43,20.43,0,0,1,8.66-7,189.21,189.21,0,0,1,60.9-12.88c16.3-.64,32.57-1.94,48.86-2.86,3.71-.21,5.27-2,5.26-5.61,0-12,.08-23.93.09-35.89q0-34.05,0-68.09c0-5.56-.31-11.12-.25-16.68,0-2.88.56-5.76.91-9.17-2.93-2-6.27-3.79-10.55-1.27-1,.62-2.72.19-4.11.2q-22.38.08-44.76.12c-4.28,0-8.8-.92-12.8.13-4.53,1.19-8.66,4-12.88,6.34-3.58,2-7,4.16-11.08,6.59,2.15-3.29,4.26-6.49,6.35-9.7,1.43-2.17,2.49-4.76,4.36-6.43s4.74-3.7,7.22-3.8q28.41-1.14,56.84-1.52c32-.39,64-.48,96.05-.76,4.1,0,6.5,1.22,8.14,5.51,2.26,5.89,5.82,11.27,8.31,17.32-4.17-4-8.9-7.49-12.37-12-3.2-4.18-6.86-4.4-11.34-4.2-13,.57-26,1-39,1.34-5.5.15-11-.32-16.51,0-3.89.27-6.45,1.68-5.87,7,.8,7.39-.1,15,.05,22.44.15,7.29.89,14.57,1,21.87.18,8.4-.19,16.83,0,25.23.42,17.34,1.17,34.68,1.55,52,.12,5.48,2.18,8.34,7.89,8.54,21.87.77,43.47,5.41,65.59,3.52a124.13,124.13,0,0,1,46,4.3c11.85,3.52,22.41,9.6,30.65,19a14.6,14.6,0,0,1,3.11,8.33c.54,9.85-.46,19.7,2.83,29.45,1.66,4.93.45,10.32-2.66,15.41-5.53,9-7.17,19.12-6.85,29.87.17,5.91-1.94,12.13-4.06,17.83-4,10.68-9.2,20.92-13,31.66-4.82,13.61-1.39,27.52.07,41.27.82,7.71-1.38,14.38-4.3,21.53-2.48,6.06-1.8,13.55-1.87,20.42-.1,10,.75,19.95-4.22,29.53-2.25,4.34-1.93,10.07-2.53,15.2-.34,2.93,1.3,4,4.22,3.54,11.31-1.88,22.69-3.4,34-5.58,15.68-3,31.29-6.52,46.92-9.84,5.61-1.19,11.17-2.59,16.8-3.67C1189.12,778.59,1189.31,778.81,1191,786Zm-568.6,19.84c-2-4.17,1.84-6.77,4.25-9.62s2-4.67-1.61-5.45c-6.1-1.34-12.21-2.67-18.38-3.61-2.34-.36-6.36-.44-7,.73a15.34,15.34,0,0,0-1.21,9.1c1.37,8.16,3.27,16.23,5.2,24.29a67.77,67.77,0,0,0,3.71,11.81c4,9.1,8.62,18,12.65,27.06,2.08,4.7,3.44,9.72,5.12,14.6,2.08,6,4.76,11.9,6.09,18.07,2.08,9.61,3.34,19.39,4.71,29.13.41,2.88,0,5.88.06,8.82,0,2.21.37,4.42.39,6.63.07,11.23.32,22.46,0,33.67-.11,3.52-2.78,5.73-7.63,5.06.77-5,1.66-9.73,2.14-14.49.14-1.46-.42-3.92-1.41-4.41-5-2.45-13.19,3.5-13,9.28.28,10.55.67,21.11,1.1,31.66.17,4.31,2.94,6.69,6.52,4.66,7-4,15.14-7.57,19.78-13.65,5.92-7.75,12.18-13.47,21-17.69,14.84-7.09,30.54-6,43,4.16,2.42,2,6.68,3.83,9.27,3,5.67-1.72,8.29-.63,8.59,5.84,1.87-.79,3.3-1.3,4.64-2Q764.6,965,798.88,947.29c13.73-7.1,27.44-14.25,41-21.57a10,10,0,0,0,4.26-4.81c1.51-4,1.82-8.45,3.55-12.31,3.07-6.81,2.22-13-2.11-18.62-3.16-4.09-7.36-7.38-10.59-11.42-3.81-4.78-9.45-9.33-8.21-16.09,1.2-6.51,4.16-12.73,6.59-19,1.56-4,4-7.72,5.19-11.83.92-3.25.31-6.83-4.61-9.13-.86,4.14-1.39,7.83-2.42,11.38-1.79,6.11-3.72,12.2-6,18.15a5,5,0,0,1-3.94,2.62c-1.09-.08-2.49-2.12-2.92-3.55-.63-2.11-.55-4.45-.74-6.69-.22-2.57.3-5.47-.72-7.64-3.37-7.13-7-14.16-11.1-20.92-2.67-4.42-7.2-7.9-9.13-12.54-2.58-6.21-6.56-7.66-12.57-7.56a14.29,14.29,0,0,1-8.19-2.54c-6.5-4.82-6.34-5-12,1.55-5.12,5.94-11,7.75-15.92,4.38-10-6.9-16.63-4.69-25.57,3.29-12.21,10.9-17.74,12.74-30,6.29-7.62-4-15.19-8.14-22.75-12.27-11.11-6.07-17.37-4.91-26.33,4.48-1.4,1.47-3.83,2.28-5.92,2.69C633,804.58,628.09,805.08,622.38,805.87ZM632.76,467l1.66-.26a13.78,13.78,0,0,0,.73,2.91c7.2,14.51,13.1,29.45,16,45.49.74,4.08,4.28,4.13,7.52,2.91,2.44-.9,4.64-2.41,7.06-3.37,6.78-2.68,7.63-3.89,6.4-11.3-1-6.15-2.47-12.23-3.5-18.38-.22-1.34.11-3.52,1-4.09s3.65-.34,4.17.46a32.65,32.65,0,0,1,4.37,9.08c1.13,4.15,1.16,8.59,2.2,12.77.88,3.56,3.35,5.79,7.38,4.83,3.74-.89,7-2.19,6.25-7.26-1.1-7-1.74-14.14-2.86-21.17-2.51-15.72-5.2-31.42-8-48.38,2.13,2.45,4.45,4,5.11,6.09,2.15,6.72,3.88,13.6,5.41,20.5,3,13.38,5.85,26.79,8.46,40.26.8,4.13,3.41,5,6.7,5,3.5-.06,4.56-2.66,4.78-5.73.13-1.91.24-3.82.36-5.72q1.37-21.07,2.72-42.15c.06-1,.15-2,.23-3a5.56,5.56,0,0,1,2.17,3.79c.57,14.41,1,28.83,1.6,43.25.07,1.58,1.32,3.1,2,4.65,1.06-1.29,2.55-2.44,3.07-3.93.68-1.92.45-4.14.87-6.17.46-2.24,1.22-4.41,1.85-6.61l2.29.2c.05,4.07-.17,8.17.26,12.19.2,1.83,1.69,5,2.62,5,2,0,5.07-1,5.92-2.61a22.68,22.68,0,0,0,2.28-9.46c.66-14.06,1-28.14,1.52-42.21a43.74,43.74,0,0,1,.73-4.93A23.94,23.94,0,0,1,747,449.88c.25,14.4.1,28.79.35,43.19,0,1.85,1.53,3.68,2.35,5.52,1.39-1.27,3.64-2.32,4-3.84a152.34,152.34,0,0,0,3.85-19.24c1.36-11.16,2.16-22.39,3.25-33.59.19-2,.59-4,.9-6l2.36.23a272.8,272.8,0,0,1-3,63.76l2.67,1.47a20.62,20.62,0,0,0,1.17-3.39c1.17-7,2.76-14,3.24-21,.84-12.44,1.24-24.93,1.34-37.4.15-17,.36-34-.5-50.93-.46-9-3.23-17.8-14.21-19.86-2.62-.49-5.37-.3-8.39-.44l4.13-3.15L749.8,363c-10.49,1.93-21,3.82-31.45,5.79-3.23.61-7.54.34-9.44,2.32-5.5,5.75-11.4,5-17.47,2.43-5-2.07-9.39-5.52-14.4-7.45-6.12-2.37-12.6-3.8-18.92-5.62-.55,1.67-.9,2.7-1.32,4-1.8-1.51-3.54-4.93-4.22.19a6.34,6.34,0,0,1-1.54,3.74c-7.1,6.1-13.89,12.7-21.66,17.82-9.57,6.33-20,11.4-30,17-3.22,1.78-4.31,3.94-2.9,7.72,1,2.72,1.66,6.1,1,8.82-1.17,4.67-2,8.91.19,13.55a11.13,11.13,0,0,1,.66,7.14c-1.59,5.62,1.13,9.31,5.09,12.07,9.29,6.49,15.35,15.81,20.31,25.34,5.39,10.36,8.45,21.93,12.47,33,1,2.78,1.4,5.83,2.77,8.39.81,1.52,3,2.31,4.53,3.43a55.83,55.83,0,0,0,2.37-5.31c.24-.72-.22-1.7-.44-2.54q-4.9-18.57-9.83-37.14C634.59,474.1,633.68,470.55,632.76,467ZM591,989.38c.35-.77.71-1.53,1.06-2.29-4.94-3.9-10.83-5.6-16.72-8-10.31-4.11-20.44-7.38-31.67-7.47-11.55-.1-21.91,2.13-30.64,10.37-4.59,4.34-10.28,7.16-16.91,6.85-3.66-.16-5.34-2-4.24-5.9a93,93,0,0,0,2.28-10.7c2.32-15.07,6.16-29.92,5.31-45.44-.44-8-.42-16.14,3.11-24a29.4,29.4,0,0,0,2-14.22c-1.08-11.94-3-23.71,1.8-35.44,1.64-4-3.35-10.08-7.75-9.84-4.6.25-5.36,3.93-5.71,7.9-1.13,12.94-2.14,25.91-3.92,38.77-.95,6.8-4.44,13.32-4.93,20.1-.69,9.46.5,19,.62,28.59.23,16.64.67,33.31.21,49.94-.28,10-2.59,20-3.1,30-.71,13.84-.7,27.73-.79,41.6-.06,9.11,2.56,17,10.53,22.6,4.82,3.39,9.12,7.51,13.8,11.13,2.41,1.86,4.93,3.87,7.74,4.88,7.49,2.68,7.55,2.48,7.75,10.88,0,.55.53,1.08,1.18,2.32.7-1.53,1.43-2.38,1.42-3.22-.09-8.88,3-18.55-6-25.32a4.32,4.32,0,0,1-1.56-2.06,18.82,18.82,0,0,1-.29-3.62c1.07.52,2.48.77,3.15,1.61,2.5,3.1,4.08,7.46,7.21,9.43,16.82,10.61,34.66,18.55,55.29,16.54,2.9-.28,8.06-1.57,8.1-2.56.14-3.51-1.35-7.14-2.5-10.63-.35-1-1.81-1.65-2.44-2.66-1.37-2.19-3.32-4.41-3.63-6.8-1.18-8.86-2.2-17.77-2.52-26.69-.62-17.32,5.57-31.93,18.67-43.48a26.38,26.38,0,0,0,2.56-3.06c-.84-.5-1.26-1-1.73-1-8.93-1-17.84-2.88-26.66,1-1.67.74-4.06-.15-6.12-.29,1.07-1.88,1.69-4.48,3.31-5.48,2.7-1.69,6-2.47,9.12-3.44,2.33-.72,4.76-1.13,7.14-1.68a14.37,14.37,0,0,0-7-2.87c-8.54-.73-16.78-2.16-25.53,1.31-10.2,4-18.22,10.5-26.32,17.37a150.27,150.27,0,0,1-17,12c-1.68,1.07-4.2.81-6.34,1.16-.18-2-.92-4.17-.43-6a58,58,0,0,1,4.16-11.13c5.46-10.82,12.16-20.33,25.42-22.52a16.21,16.21,0,0,0,6.59-3c9.07-6.59,30.17-7.62,39.89-2C582.07,985.43,586.59,987.27,591,989.38Zm10.15-48.27c1.42-5.54-1.39-8.5-4.24-11.53-11.61-12.36-26-22-36-35.92a29.9,29.9,0,0,1-3.68-6.25c-2.87-7.24-5.55-14.55-8.17-21.88-.39-1.08-.49-3.13.08-3.49a4.18,4.18,0,0,1,3.78-.15c2.13,1.4,3.87,3.38,5.82,5.06q14.55,12.59,29.13,25.1c1.58,1.35,3.38,2.43,6.08,4.34.17-3.29.21-5.15.36-7a43.89,43.89,0,0,1,.7-6.2c1.71-7.55,1.76-7.53,9.38-5.48.26.06.62-.24-.11.06,2.27-6.38,4.49-12,6.19-17.7.76-2.57,1.27-5.7.5-8.14-4.72-14.89-9.93-29.62-14.78-44.47a62.43,62.43,0,0,1-2.93-12.67c-.93-9,5-16.79,14.14-14,2,.6,5.56-.54,6.91-2.13,7.78-9.23,5.87-18.11-4.28-24.56-1.8-1.14-3-4.42-3.1-6.78-.27-5.25.53-10.54.43-15.81a6.75,6.75,0,0,0-2.64-4.5c-.64-.48-3.34.52-3.9,1.53a8.94,8.94,0,0,0-.86,5.58c.6,3.21,2.57,6.28,2.67,9.46.1,3-.47,7.42-2.46,8.9a92.32,92.32,0,0,1-18.88,10.88c-10.31,4.34-19.59,9.59-25.48,19.53a6.26,6.26,0,0,1-2.39,2.63c-1.08.46-2.51.13-3.79.14.17-1.12-.05-2.52.55-3.3,6.73-8.71,13.86-16.62,24.69-21,7.42-3,14.06-8.07,20.74-12.66,3.18-2.19,2.59-5.88.18-8.27-2.7-2.67-4.8-.34-6.91,1.82-6.43,6.62-12.9,13.71-22.18,15.85A32.23,32.23,0,0,0,550,767.39c-9.95,10-19.42,20.16-27.63,31.61-7.44,10.37-11.74,21.91-14.29,34.19-.47,2.23.61,4.78,1,7.18,1.73-1.76,4-3.23,5.09-5.31,5.69-10.54,11.34-21.12,16.5-31.93,3.62-7.6,9.55-10.57,17.45-10.77,4.87-.13,8.16,2.82,9.89,7.51,3,8.14,6.5,16.1,9.81,24.13.26.63.79,1.15,1,1.79,2,6.52,3.86,13.11,6.14,19.54,1.39,3.92.66,9.91-2.86,12.48-.94-4.32-1.56-8.37-2.71-12.26-1.84-6.26-3.56-12.63-6.18-18.58-3.47-7.9-8.09-15.3-11.55-23.2-1.53-3.5-3.22-7.25-6.86-6.5a20.58,20.58,0,0,0-10.58,6.27c-2.72,3.09-3.62,7.72-5.6,11.54-4.83,9.29-10.19,18.32-14.56,27.81a21.28,21.28,0,0,0-1.53,12.4c.87,4.21,3.62,8.23,6.24,11.82,3.27,4.47,7.92,8,10.76,12.67,5.21,8.55,13.25,13.89,21.15,18.91,14.92,9.47,28,20.94,40.65,33.11C594.57,934.93,597.85,938,601.11,941.11Zm96.45,139.06c.24-.67.49-1.34.74-2l-13.24-9.52c-6.9-4.93-13.85-9.79-20.65-14.86-.89-.67-1.69-2.63-1.33-3.49s2.42-2,3.33-1.71c2.86.89,6,1.87,8.17,3.76,4.79,4.14,7.51,4.35,12-.24,3-3,5.82-6,3.35-10.91-.54-1.07.32-3.35,1.27-4.44.45-.51,2.76.24,4,.86,4.95,2.46,9.84,5,14.68,7.7,1.34.74,2.35,2.09,3.68,2.84,2.75,1.57,5.48,3.37,8.46,4.26a100.33,100.33,0,0,0,12.14,2.28c2.65.44,6.13-.24,5-3.18-2.27-5.81-5.09-11.85-9.23-16.4-8.2-9-19.87-14.54-26.54-25.35a15,15,0,0,0-4.6-4.17c-4.91-3.25-10-6.16-14.87-9.53-1.22-.86-1.57-3-2.32-4.48,1.55-.4,3.34-1.49,4.62-1.06a31.41,31.41,0,0,1,9.29,4.41c6.33,4.85,12.15,10.36,18.48,15.19,1.44,1.1,5.06,1.5,6,.55,1.31-1.29,2.07-4.68,1.28-6.32-4.39-9.17-7.75-18.31-17.93-24.39-8.62-5.14-16.61-5.68-25.59-5.9-7.31-.18-12.06,4.63-17.71,7.76-4.58,2.53-9.22,4.87-11.12,10.39-.52,1.49-2.07,2.81-3.43,3.8-5.88,4.28-11.69,8.72-17.88,12.53-7.69,4.75-15.64,8.89-25.24,8.84-2.32,0-5.26,2.5-6.88,4.64-9.18,12.1-11.28,26.34-11.22,41,0,2.2,1.5,5.29,3.28,6.39a31.22,31.22,0,0,0,11.1,4.15c6.16,1,12.48,1,18.69,1.66,2.72.32,5.35,1.41,8,2.15,0,.63,0,1.25,0,1.88-1.63.56-3.23,1.54-4.89,1.62a121.75,121.75,0,0,1-15,.11c-4.77-.35-9.47-1.58-14.23-2.16-1.38-.16-2.86.59-4.29.93,1,1,1.94,2.69,3.15,3,3.71.83,7.59.91,11.3,1.75,1.34.3,2.38,1.92,3.56,2.94-1.32.91-2.54,2.23-4,2.62s-3.07-.36-4.62-.34a17.83,17.83,0,0,0-3.47.71l.18,1.47c5.57,2.27,11.12,1,16.76-.59,13.13-3.57,25.92-11.16,40.1-3.79l29.45-3.24c0-.57.07-1.15.11-1.72a22.21,22.21,0,0,0-4.63-1c-4.5,0-9,.52-13.48.09-2.46-.24-4.93-1.77-7.08-3.19-.73-.49-.49-2.45-.7-3.73a14.93,14.93,0,0,1,3.36-.35c2.58.3,5.39,1.74,7.65,1.1,8.38-2.38,15.72.76,23.33,3.2C691,1079.59,694.32,1079.67,697.56,1080.17ZM1152.05,797.1c-.21-.52-.43-1-.64-1.57-3.86.67-7.73,1.3-11.57,2-2.55.48-5.09,1-7.59,1.67-10.4,2.7-20.72,5.76-31.2,8.1-12.82,2.85-25.42,5.83-36.77,13.08-9.35,6-19.22,11.14-29,16.34-8,4.23-16.29,7.81-24.33,11.94q-30.57,15.69-61,31.64c-12.76,6.69-25.32,13.73-38.13,20.32-17.74,9.14-35.72,17.81-53.43,27-21,10.89-41.7,22.16-62.58,33.19q-21.42,11.32-43,22.37c-3.2,1.64-3.88,3.17-2,6.46,2.94,5.09,5.22,10.56,8,15.75a66.84,66.84,0,0,0,4.6,6.64c3.87-2.15,7.09-3.83,10.22-5.67,8.83-5.2,17.54-10.58,26.45-15.64,9.51-5.41,19.39-10.2,28.75-15.85,14.22-8.57,28-17.95,42.23-26.43,13.13-7.81,26.74-14.79,40.05-22.3,9.51-5.36,18.77-11.18,28.32-16.47,16.4-9.08,32.94-17.93,49.44-26.84,13.11-7.09,26.22-14.2,39.4-21.16,11.34-6,22.85-11.65,34.15-17.72,9.91-5.31,19.56-11.08,29.44-16.45,8.83-4.8,17.8-9.37,26.75-13.95,8.32-4.26,16.69-8.43,25.06-12.59C1146.42,799.62,1149.25,798.4,1152.05,797.1ZM772.43,547.43l1.15-.15c-1.16-10.71-2.26-21.43-3.5-32.13-.93-8.06-2.06-9.41-10.17-9.17-12.63.36-25.3.85-37.84,2.24-9.34,1-18.52,3.57-27.76,5.44-.68.14-1.45.6-2,.41-7.92-2.63-13.51,4.17-20.7,5.21-7.6,1.1-14.59,5.86-22.16,7.86-12,3.16-16.78,8.9-14.85,18.42,1.15,5.65.84,11.57,1.54,17.33,1.2,9.93,2.44,19.87,4.26,29.68.31,1.69,4.06,4.36,5.48,4,7.89-2.26,16.23-4.2,23.12-8.38a88.75,88.75,0,0,1,29.59-11c8.15-1.6,16.43-2.62,24.69-3.56,14.13-1.6,28.27-3.36,42.46-4.25,8.12-.5,9.82-1.78,8.42-10.12C773.5,555.3,773,551.36,772.43,547.43ZM600.93,984.69l1.35-1.51c-1.78-2-3.42-4.24-5.39-6.1-4.42-4.17-8.9-8.28-13.56-12.18a84.6,84.6,0,0,0-9.46-6.7c-2.61-1.63-5.48-2.84-8.21-4.28-3.35-1.76-6.5-4.11-10-5.26a143.45,143.45,0,0,1-39.55-19.53c-2.31-1.65-3.53-4.83-5.25-7.31,2.73.78,5.75,1.08,8.15,2.44,5.25,3,9.82,7.41,15.32,9.63,12.83,5.19,26.16,9.09,39.05,14.14,11.32,4.44,20.37,12.34,28.57,21.19,1.08,1.16,2.19,2.3,3.29,3.45.88-1.4,2.29-2.72,2.51-4.22a7.5,7.5,0,0,0-1.08-5.15c-2.08-2.73-4.82-4.94-7.15-7.49-6.54-7.17-13.3-14.15-19.45-21.64-9.94-12.1-22.65-20.83-34.83-30.31a136.72,136.72,0,0,1-18.89-17.74c-5.74-6.56-10.34-14.12-15.44-21.24l-1.64.13c-.52,3.07-1.51,6.14-1.47,9.2.07,5.56.79,11.1,1.15,16.66a31.82,31.82,0,0,1-3.14,15.54c-2,4.42-1.69,10-2,15.05-.22,3.26.57,6.59.32,9.84-.82,10.37-2.05,20.7-2.87,31.07-.63,8,1.08,9.42,8.83,7.46,8.08-2,16.21-4,24.09-6.76,11.25-3.88,22.48-2.1,32.67,1.88s19.5,11,29.18,16.75C597.62,982.68,599.27,983.69,600.93,984.69Zm48.4-205.61.54,1.81c1.94.65,3.84,1.41,5.81,1.94a64,64,0,0,1,22.79,10.84c9.84,7.47,21.19,8.93,32.32,2.81,7.34-4,14.12-9.18,20.91-14.15,2.42-1.77,2-4-1.24-4.81a10.82,10.82,0,0,0-4.13,0c-7.35,1.21-14.67,2.61-22,3.7-1.19.18-2.57-.86-3.86-1.34.58-1.32.85-3,1.82-3.87a8.79,8.79,0,0,1,4.26-1.81c7.66-1.33,15.35-2.46,23-3.76a15,15,0,0,0,4.87-1.52c4.59-2.64,8-1,8.34,4.31.22,3.27,0,6.58,0,9.87s1.4,5.77,4.83,6.42c3.71.71,6.37-.7,7.93-4.3,2.46-5.68,1.82-11.39,1.22-17.36-.45-4.39-2.46-4.84-5.92-5.35a44.79,44.79,0,0,1-11.62-3.18c-2.64-1.17-4.27-1.63-6.22.88-5,6.44-11.58,8.92-19.73,7.54a58.27,58.27,0,0,0-11.84-1c-12.73.52-25.82-1.55-37.82,4.73C658.8,774,654.08,776.54,649.33,779.08Zm24.66-19-.11-1.84c-4-1.41-8-3.06-12.1-4.19-12.57-3.44-22.77-9.36-25.94-23.25a22.51,22.51,0,0,0-1.71-3.8c-1.65-3.8-4.67-4.93-8.51-4.25-1.87.33-3.69,1-5.54,1.45-7.38,1.83-8.8,4-7.79,11.47a75.2,75.2,0,0,1,1,12.94c-.17,4.7,1.43,7.18,6.18,7.81,4.51.59,6.78,3.38,6.35,8-.49,5.14-1.24,10.25-1.8,15.37a25.62,25.62,0,0,0,.07,3.39,12.06,12.06,0,0,0,3.37-.23c4.39-1.57,8.67-3.46,13.09-4.94,4.2-1.4,4.86-3.68,3-7.56-1.19-2.51-1.57-5.39-2.31-8.11l1.79-.72c1.34,1.25,2.51,2.81,4.06,3.68,2.32,1.31,5.35,3.53,7.3,2.91C661.15,766.07,667.5,762.88,674,760.1Zm32-8.86c-.26.54-.51,1.07-.76,1.61,2.74,4.29,5.78,8.43,11.29,9.53s9.07-1.19,11.85-6.16,5.74-5.55,10.85-3c5.52,2.82,11.22,2.58,16.7.49,3.89-1.49,8.56-3.14,10.85-6.23,6.38-8.61,12-17.74,14.59-28.52,3.42-14.28,7.53-28.39,11.43-42.55.83-3-.73-3.71-3.15-3.94-5.37-.51-8.42,3.22-8.38,10,0,5.19,1.05,10.8-.53,15.49-4.74,14.1-10.44,27.88-16,41.69-2.18,5.43-5.7,8.52-12.42,8.92-9.42.57-18.73,3-28.1,4.48a18.58,18.58,0,0,1-5.16,0C714.72,752.59,710.37,751.88,706,751.24Zm112,26.44v-1.6c-2.06-.41-4.12-1.15-6.18-1.17-4.34,0-8.72.74-13,.38-9.28-.78-18.52-2-27.77-3.17-2.36-.3-3.94-.1-3,2.85a12.2,12.2,0,0,0,13.32,8.63c3.61-.47,7.14-1.46,10.75-2,7-1,9.55.3,10.83,7.1,2.43,12.9,14.26,18.52,20.16,29,3.41-4.2,4.22-11.11,2.78-16.52-1.12-4.22-4.94-2.21-7.28-3.51a20.45,20.45,0,0,1-3.48-3.13c1.11-1.18,2-2.7,3.38-3.45a32.52,32.52,0,0,1,5.8-2l-.17-1.72a37.76,37.76,0,0,1-5-.79,51.22,51.22,0,0,1-5.36-2.15c.8-1.71,1.52-3.46,2.45-5.1A8,8,0,0,1,818,777.68ZM693.81,752c-5.07-3.49-8.7-6-12.35-8.5q-10.92-7.47-21.85-14.92c-3.43-2.33-7.45-4.12-10.22-7.07-4-4.26-6.83-9.54-10.64-14-1.22-1.41-4.34-2.48-5.9-1.89-1.32.5-2.86,4.27-2.21,5.47,3.59,6.7,6.51,14.64,12.08,19.2,13.34,10.9,28.58,19,45.94,22C690,752.57,691.38,752.19,693.81,752Zm-99-302.07-1.09,1.15c2.11,10.2,11.56,15.59,16.2,24.15s9.43,17.26,14.43,25.72c4.91,8.3,2.93,19.13,9.92,26.7a5.75,5.75,0,0,0,.61-3.91c-3.6-12.44-6.8-25-11.16-37.22a67.9,67.9,0,0,0-10.21-17.79c-4.5-5.89-10.14-10.9-15.35-16.23A28.29,28.29,0,0,0,594.82,449.94Zm-1.08,468.89,1.3-1.06c-2.46-5.29-4.91-10.58-7.4-15.86-.13-.28-.53-.43-.77-.68-2.87-3-5.76-5.9-8.6-8.88-5.27-5.53-10.41-11.19-15.86-16.54-1.11-1.08-3.37-1-5.1-1.43,0,1.71-.57,3.84.21,5.07,3.35,5.23,6.65,10.62,10.82,15.17,5.86,6.38,12.49,12.06,18.79,18C589.32,914.72,591.53,916.77,593.74,918.83ZM979.25,524c-4-.7-8-1.59-12-2-5.85-.67-11.72-1.14-17.6-1.5-5.6-.34-11.3-1.12-16.8-.44-5.22.64-11.51,1.57-15,4.85-4.06,3.8-8,6.27-13.19,7.4a8.1,8.1,0,0,0-.22,1.76c7.65-.76,14.85,4.11,22.71.62-2.08-1.31-4.34-1.6-6.48-2.27a13,13,0,0,1-3.14-2.11,11.49,11.49,0,0,1,2.15-2.52,13.48,13.48,0,0,1,4.26-1.86c11.72-2.61,23.48-4.78,35.39-1.14,2.06.63,4.89,1.15,5.74,2.64.74,1.3-.81,3.9-1.33,5.83C972.05,536.63,971.82,523.91,979.25,524ZM611.88,918.49l1.61,0c2-6.26,5.22-12.44,5.59-18.79.54-9.2-.88-18.53-1.82-27.77-.15-1.46-2.17-2.73-3.32-4.09-.84,1.49-2.35,3-2.42,4.47-.55,11.92-.95,23.86-1.08,35.8C610.4,911.59,611.37,915,611.88,918.49Zm-54.65,69.78-.43-1.41a25.89,25.89,0,0,0-18.8,3.9c-3.27,2.14-6.93,4.31-10.68,5-11,2-13.74,11.6-18.81,19.1-.24.35.29,1.22.69,2.63,2.28-1.24,4.38-2,6-3.36,5.86-4.72,11.17-10.24,17.45-14.27s13.35-6.54,20.1-9.7C554.24,989.47,555.75,988.89,557.23,988.27Zm72.61-67.44-1.41.09c-2.21,3-3.88,6.77-6.74,9-6.24,4.76-6.15,11.25-6.1,17.84a4.13,4.13,0,0,0,2.18,3c6,2.47,14.39-4.23,13.77-10.65-.37-3.75-.18-7.55-.47-11.32C630.86,926.12,630.27,923.48,629.84,920.83Zm82.31,150.26c3.1-1.47,6.57-1.8,4.54-5.54-2.67-4.89-4.76-10.6-10.78-12.69-1.79-.63-4.6-1.66-5.5-.87-2.63,2.31-4.62,5.39-6.63,8.33-.27.39.59,2.15,1.32,2.52C700.73,1065.69,706.46,1068.36,712.15,1071.09ZM1021,729.9l.44-1.7-68.48-19.63-.41,1.54A262,262,0,0,0,1021,729.9ZM748.15,1020.12a16.7,16.7,0,0,0-1.09-2.59c-4.09-5.66-6.43-12-8.45-18.67-.68-2.23-1.2-8.16-6.53-5.86-5.05,2.19-1.45,5.82-.66,8.88a3.11,3.11,0,0,0,.16.49c2.75,5.94,5.28,12,8.44,17.72.76,1.37,3.56,1.89,5.51,2.17C746.33,1022.38,747.36,1020.8,748.15,1020.12Zm263.08,108.81c-7.89-4.45-34.14.75-43.68,3.67C972.51,1136.89,1004.49,1134.39,1011.23,1128.93ZM883.38,564.12l.36-2.33c-8.6-1.51-17.23-2.86-25.79-4.6-7.9-1.61-15.7-3.73-23.59-5.42-1.18-.25-3.35.28-3.71,1.07a4.31,4.31,0,0,0,.67,4,9.28,9.28,0,0,0,4.77,1.72c6.84.94,13.7,1.75,20.56,2.54C865.56,562.16,874.47,563.13,883.38,564.12Zm129,217.45.72-2.27c-1.41-1.14-2.73-3.1-4.25-3.27-13.82-1.55-27.68-2.8-41.52-4.13-.12,1-.23,2-.35,3Zm-13.73,310.54c7.62,1.62,13.74,3.52,20,4.1,6.68.62,13.47.09,20.2-.18,1,0,2-1.39,3-2.13-1.07-.62-2.08-1.65-3.2-1.78-7.86-.9-15.75-1.59-23.62-2.39C1010,1089.21,1004.88,1088.37,998.66,1092.11Zm1.18-340.55c-.16.6-.31,1.2-.47,1.8,17.9,7.38,36.17,13.13,56,12.28a7.58,7.58,0,0,0-5-2.71c-12.15-1.42-24.47-1.36-35.72-7.73C1010.42,752.79,1004.83,752.71,999.84,751.56Zm-176.4,9c-1.92,1-3.58,1.39-3.77,2.13a4.71,4.71,0,0,0,.76,3.79c2.55,2.8,5.74,5,8.1,8,4,5,4.43,5.23,9.65,1.67,3.75-2.56,3.57-4.35-.59-6.6-2.4-1.3-4.81-2.6-7.11-4.06S825.73,762.13,823.44,760.52Zm111.88,361.85c12.15,4.2,24.19,2.8,36.22-.13C959.44,1116.89,947.37,1119.85,935.32,1122.37ZM949.24,936c0-.91.07-1.82.1-2.73-3.34-.46-6.71-1.48-10-1.26A77.63,77.63,0,0,0,925,934.43c-5.53,1.45-10.89,3.53-16.33,5.33.15.53.31,1.07.46,1.61ZM632.05,648.24c1.55,0,3.25.39,4.61-.12,1.15-.43,2.61-1.83,2.72-2.92.35-3.43-4.36-9.41-7.88-9.93-3-.44-6-.37-7.35,3.54C621.8,645.58,623.53,647.76,632.05,648.24Zm407,57.88-.1,1.52a12.29,12.29,0,0,0,3.27,1.29c14.14,1.32,28.29,2.6,42.45,3.68,1.18.09,2.47-1.27,3.71-2-1.22-.94-2.33-2.37-3.7-2.68-2-.46-4.13-.05-6.21-.09-8.29-.2-16.57-.34-24.85-.67C1048.77,707,1043.92,706.49,1039.07,706.12Zm-44.8-88.78c-.09.44-.17.87-.26,1.31,9.65,2.4,19.3,4.85,29,7.19a37.68,37.68,0,0,0,6.66,1c3.15.18,6.32,0,9.48,0C1024.76,619.25,1009.59,617.85,994.27,617.34ZM1041.85,520c13.49,4.57,27.29,5.18,41.3,3.55A93.75,93.75,0,0,0,1041.85,520Zm25.85,163c4.77.21,9.29.62,13.8.53,3.38-.07,6.07-2.27,5.2-5.57-.52-2-3.48-4.2-5.67-4.62C1074.61,672.1,1069.72,674.44,1067.7,683ZM880.25,527.65l.07-1.8c-6.64-1.17-13.24-2.72-19.93-3.31-2.91-.26-6.13,1.14-8.94,2.4-1.23.54-1.78,2.6-2.64,4,1.15.55,2.35,1.64,3.44,1.54C861.6,529.63,870.92,528.61,880.25,527.65Zm-128,488.82c4-2.87,4.63-4,3-7.75-2.6-5.8-5.56-11.45-8.6-17-.71-1.29-2.35-2.07-3.57-3.08-.41,1.64-1.63,3.6-1.11,4.85C745.1,1001.07,748.65,1008.52,752.27,1016.47Zm350-480.37c-12.85-5.14-26.46-4.85-39.84-6C1066.8,534.71,1097.89,539.65,1102.25,536.1Zm-90.8,535.57c9.17,4.39,19.52,2.41,29.71,1.73a20.42,20.42,0,0,0,7.41-2.22c1-.5,1.39-2.34,2-3.58-1.22-.31-2.5-1-3.66-.87C1035.06,1068.3,1023.18,1070,1011.45,1071.67Zm41-353.91c-.11.74-.23,1.48-.34,2.22,8.91,1.53,17.8,3.17,26.73,4.48,1.72.26,3.77-.52,5.41-1.33,1-.51,1.6-2,2.37-3-1.23-.8-2.44-2.26-3.69-2.28C1072.75,717.67,1062.59,717.76,1052.43,717.76ZM953.79,722c.2-.62.39-1.24.58-1.85-3.43-1.9-6.77-4-10.3-5.63A93.43,93.43,0,0,0,933,710.11a115.26,115.26,0,0,0-11.6-3c-3.61-.75-7.28-1.2-10.92-1.79l-.09,1.15Zm-19.1,104.17c7.22,3.72,38.8,6.92,43.27,4.16-4.67-.62-9.13-.06-12.24-1.84C955.82,822.76,945.82,825.35,934.69,826.14ZM872.44,645.91l.73-1.54c-2-.87-3.85-2.07-5.9-2.54a152.07,152.07,0,0,0-16.07-3c-4-.48-8.16-.09-12.25-.09l-.12,2C849.67,644.51,860.68,647.28,872.44,645.91Zm159.37-39.43c16,3.48,31.53,5.37,47.37,5a2.92,2.92,0,0,0-2-1.68c-10.73-1.76-21.46-3.61-32.23-5.08C1040.73,604.1,1036.16,602.73,1031.81,606.48Zm21,132.76-.24,1.93c7.62,2.72,15.21,5.55,22.89,8.12,2.48.83,5.84,1.32,6.1-2.3.1-1.38-2.92-3.92-4.86-4.33-5.84-1.23-11.85-1.65-17.78-2.43C1056.86,740,1054.84,739.57,1052.8,739.24ZM873,864.55l.24-1.38L852,857.3c-4-1.11-8-2.36-12-3.26-1-.23-2.32.66-3.49,1,.71,1.07,1.21,2.4,2.17,3.14a8.65,8.65,0,0,0,3.82,1.52C852.64,861.41,862.81,863,873,864.55Zm133.76,254.28,0,2c3.95.74,7.92,2.17,11.84,2a143.36,143.36,0,0,0,19-2.34c1.47-.24,2.73-1.79,4.08-2.74-1.59-.51-3.21-1.51-4.77-1.43-8.65.4-17.29,1.05-25.92,1.68A35.36,35.36,0,0,0,1006.74,1118.83ZM894,1034.72c.07-.57.14-1.13.2-1.69a53.42,53.42,0,0,0-6.41-2.93c-5.61-1.75-11.25-3.42-17-4.71-1.22-.27-2.84,1.23-4.28,1.92,1,1,1.86,2.68,3.07,3,5.49,1.52,11.05,2.8,16.64,3.89A57,57,0,0,0,894,1034.72Zm113.79-113.11-.16-1.51c-12.54-2.44-24.83-2.74-36.16,5.15Zm-7.46,180.17c-2-7.53-21.91-9.55-29.37-2.1ZM917.05,849.15c12.41,2.68,24.82,2,37.23,0C941.87,845,929.46,847.4,917.05,849.15Zm110.61,149c-12.54-1.2-25.06-6.53-37.63,0C1002.57,999.28,1015.1,1000.23,1027.66,998.12Zm11.45,111.3a17.56,17.56,0,0,0,4.16-2.78c.64-.66.42-3.46,0-3.63a20.75,20.75,0,0,0-5.5-.77,50.64,50.64,0,0,0-5.63-.27,52.44,52.44,0,0,0-8.13.65,3.29,3.29,0,0,0-2,2.49c0,.7,1.42,1.86,2.37,2C1028.74,1108,1033.2,1108.54,1039.11,1109.42Zm-137.58,4.51.21,2,41.58-2.28-.08-1.7C929.27,1110.73,915.35,1110.94,901.53,1113.93Zm91.53-182.1.29,2.11c14.41.1,28.42-2.8,42.38-6l-.28-2.09ZM867.27,621.19l.27-1.24a9.69,9.69,0,0,0-2.51-1.22c-5.44-.85-11-1.22-16.33-2.44-7.88-1.79-15.61-4.21-23.44-6.22-1-.25-2.12.37-3.18.59.37.86.55,2.32,1.13,2.49,4.72,1.47,9.48,2.93,14.32,3.92,5.21,1.07,10.52,1.68,15.81,2.4C858,620.11,862.62,620.62,867.27,621.19Zm166.36,394.59c0,.74.08,1.49.13,2.23,3.18,0,6.37,0,9.55,0,2.73,0,5.46.35,8.18.22a40.17,40.17,0,0,0,7.64-1.15c.32-.07.54-2.9.16-3.08a51.89,51.89,0,0,0-7.53-2.7c-.54-.16-1.3.37-2,.59-2.43.79-4.82,1.76-7.31,2.35C1039.59,1014.93,1036.59,1015.28,1033.63,1015.78ZM985,1110.12l.2,1.7c9.52.89,19.11,4.66,28.71-1.67-2.34-1.43-4.87-2.68-7.37-2.63-4.4.1-8.79,1-13.18,1.56ZM646.8,788.64c-.52-.81-1.16-2.54-2.39-3.48-.82-.63-3-.7-3.7-.06a41.24,41.24,0,0,0-7.12,8c-.64,1,.33,4.33,1.42,4.87C637.54,799.24,646.56,792.34,646.8,788.64Zm297.25,231.88-.35,2.07c13.87,2.46,27.73,5,41.63,7.3,2.13.35,4.41-.26,6.62-.42l-.23-.71Zm98.66-76.83c-14.82-4.46-28.71,1.85-43.07,2.85C1014.41,951.07,1028.27,943.67,1042.71,943.69Zm-39.55-412.13c-.08.79-.15,1.59-.23,2.38l33,2.1C1025.46,529.65,1014.31,530.54,1003.16,531.56ZM842.94,597.28c.14-.73.27-1.46.4-2.18-6-2.55-11.93-5.26-18-7.52-1.22-.45-3.5.38-4.47,1.41a4.48,4.48,0,0,0-.48,4.25c.55.9,2.63,1,4.06,1.21,2.68.41,5.39.56,8.06,1C836,596,839.46,596.65,842.94,597.28Zm194.67,177.05c-.07.76-.13,1.53-.2,2.29l31.76,2.85.21-2.28C1058.82,775.93,1048.52,771.71,1037.61,774.33Zm-41-141.76c9.82,4.94,20,6,31.62,7C1022.28,634.27,1001.14,629.86,996.57,632.57ZM936,1069.12l.12,3.23a86.8,86.8,0,0,0,34.39-5Zm-33.76-314.5c4.48,5.71,27.88,10.4,34.92,7.3Zm143,33c10,1.24,20,3.16,31.17,1.61C1071.07,784.79,1050.91,784.05,1045.23,787.6ZM766.87,758.79c1,9.13,23.52,13.56,38.23,7-1.76-.09-2.74,0-3.69-.19-11.47-1.78-24.21,2.63-34.08-7C767.28,758.56,767,758.72,766.87,758.79Zm252,268.73c0,.65,0,1.3,0,2,8.9.18,17.8.44,26.7.44,1.21,0,2.42-1.34,3.63-2.06-1.26-.84-2.57-2.45-3.79-2.39C1036.52,1026,1027.67,1026.79,1018.82,1027.52ZM849.39,774.72c11.13,3.61,22.34,6.61,34.26,4.2C872.56,775,860.85,775.76,849.39,774.72Zm223.86,24c-9.07-4.42-25.4-4-29.11.53C1053.7,799.9,1062.76,801.72,1073.25,798.68Zm-156.59,5.23c10.23,6.18,21.94,6.86,33.37,8.52C938.83,809.88,929,802.32,916.66,803.91Zm64.1,18.67c8.33,5,24.07,6.87,30.19,2.91C1000.38,824.2,991.3,820.4,980.76,822.58ZM859.5,807.31l.85-1.68c-1.45-1.08-2.75-2.56-4.38-3.17-4.87-1.83-9.82-3.48-14.84-4.82-1.24-.34-2.87.73-4.31,1.15.87,1.2,1.53,3.15,2.66,3.47C846.09,804.15,852.81,805.66,859.5,807.31Zm29.3-41.79-.3,2.43,49.69,8c.08-.49.15-1,.23-1.48ZM855.14,744.2c-8.27-2.34-16.51-4.78-24.83-6.93-1.26-.32-2.86.71-4.31,1.12,1,1,1.74,2.53,2.91,3A54,54,0,0,0,855.14,744.2Zm177.6-96.59-.38,2,29.51,5.79.38-2C1052.75,649.68,1043.27,645.86,1032.74,647.61Zm-3.88,435c9.94,6,19.41,4.25,21.93-4.34ZM956.37,664.16c.13-.55.25-1.1.38-1.65-7.85-8.17-15.18-6-23.85-2.28ZM903.61,857c.08-.9.17-1.79.25-2.68l-37-3.52-.24,2.47Zm56.28,247.38c-6.83-4.28-15.06-4.26-24.3-.22C942.28,1106.92,954.91,1107.15,959.89,1104.4ZM878.25,888.46c9.55,2.26,34.27-2.14,37.79-6.46ZM992.4,810.65l.27-1.84c-13.28-1.84-26.15-6.44-39.72-6.24l-.3,2Zm85.24-185.41c.15-.87.3-1.73.46-2.59-10.29-4.37-21.31-4.52-32.37-4.46C1056.33,620.74,1066.79,624.1,1077.64,625.24Zm-42.92,363.18c0,.41,0,.83,0,1.24,8.65,0,17.31.1,26-.13,1.08,0,2.12-1.78,3.18-2.73-1.21-.55-2.48-1.69-3.62-1.56C1051.74,986.16,1043.24,987.33,1034.72,988.42ZM854,666.43c-8.5-4.54-17.2-4.94-26.37-6.49C830.51,665.17,847.43,669.17,854,666.43Zm47.81,165c.11-1,.22-2,.34-3l-32.2-3.42-.28,2.48Zm94.86,60.58c9.45,2,23.33,1.09,25.64-1.5C1014.29,887.46,1001.48,888,996.65,892.05Zm-130-58.32c.11-.24.21-.48.31-.72-.56-.3-1.13-.61-1.71-.89-5.91-2.94-13.14-3.31-17.58-9.18a2.8,2.8,0,0,0-2.73-.24c-.65.76-1.2,2.7-.79,3.08,2.39,2.25,4.78,5.16,7.7,6C856.59,833.19,861.72,833.16,866.67,833.73ZM757.57,648.44c-.41,2.77-1.51,5.7-.82,6.21a123.68,123.68,0,0,0,13.14,8.16c.51.29,2.16-.46,2.47-1.12s-.38-1.94-1-2.51c-3.07-2.71-6.27-5.28-9.46-7.86C761,650.58,759.93,650,757.57,648.44Zm257.59,390.36c5.85,3.31,32,3.79,35.26,0ZM999.52,788.71c9.21,4.87,25.22,4.94,29.26,0Zm-21.58,255.12c-.1.55-.21,1.1-.31,1.65l26.19,5.32C997.28,1044.45,984.21,1041.51,977.94,1043.83Zm112.63-426.19c3,3.53,10.57,6.7,13.12,5.35,1.54-.82,2.18-3.33,3.23-5.08-1.46-.73-2.86-1.77-4.4-2.1a14.18,14.18,0,0,0-5.07.08C1095.29,616.25,1093.2,617,1090.57,617.64Zm-69.55,516c6.34,1.26,17.11-3.07,18-7C1030.57,1124.5,1024.69,1126.68,1021,1133.6ZM604.11,897.18c-5.08,8-3.58,21,2.13,24.29C605.5,913.07,604.8,905.12,604.11,897.18ZM869,717.34c.17-.57.35-1.14.52-1.71-2.67-.92-5.29-2-8-2.71-5.71-1.46-11.45-2.8-17.22-4-1.42-.29-3,.26-4.52.42,1.19,1,2.24,2.54,3.58,2.84C851.88,714.07,860.46,715.66,869,717.34Zm191.31-81.25-.27,2c10.21,1.82,20.41,3.66,30.63,5.36.67.11,1.53-1,2.3-1.47-.91-.73-1.74-1.92-2.75-2.1-4.69-.86-9.41-1.52-14.14-2.1C1070.85,637.13,1065.58,636.64,1060.33,636.09Zm-207.62,282,20.19-10.91C859.15,906.54,851.77,910.48,852.71,918.14ZM975.27,745.36c-6.84-2.23-13.69-4.68-20.69-6.59-1.57-.43-3.66,1-5.52,1.63,3.83,2.11,7.45,2.7,10.56,4.29A17.75,17.75,0,0,0,975.27,745.36Zm9.92-7.33c.13-.59.27-1.18.4-1.77-5.18-4.27-21.19-7.69-27.36-4.84Zm-42.61,13.84.15-1.83c-7.93-2.14-15.54-7.55-24.16-2.55l-.18,1.68Zm39.79,324.66-.14,1.57,22.43,2.83C999.55,1074.13,990.55,1072.91,982.37,1076.53ZM890.88,961.77l-.3-.46c-7.07.59-14.16,1.05-21.2,1.9-1.24.15-2.27,2-3.4,3,1.44.89,3.19,2.81,4.28,2.49C877.22,966.7,884,964.16,890.88,961.77Zm-277-314.4c1.23,2.57,2.16,5.37,3.81,7.63.86,1.18,3,1.42,4.57,2.09.45-1.87,1.73-4.07,1.15-5.53-.9-2.26-3-4.09-4.75-6-.7-.75-2.1-1.76-2.69-1.51C615.17,644.45,614.8,645.87,613.91,647.37Zm340.11,51c-.1.87-.19,1.74-.28,2.61l33.65,5.76c.13-.79.27-1.57.41-2.36ZM896.86,1098c5.73,2.67,22.65,1.53,24.88-1.47C916.51,1094.4,900.07,1095.17,896.86,1098Zm14.5-74.85c-7-4.14-27-5.6-30.55-2.19ZM1108.6,585l7-6.92c-1.29-1.28-3-3.87-3.8-3.61-2.86.91-5.41,2.78-8.07,4.3ZM923,794.6l.09-2.07c-7.93-3-16-2.37-24.08-1.68l-.12,2.42Zm124.44,96.53c.09.85.17,1.69.25,2.54,7.07-.57,14.15-1,21.19-1.86.84-.09,1.46-2.09,2.92-4.36ZM886.1,535.93c-8.77-2.76-16.67-2.37-25.58.4C869,539.26,882.92,539.22,886.1,535.93ZM934,1090.82l0,1.49c10.58,2.19,21.09,2.85,31.81-1.49Zm-34.89-35.7-21-5.73C882.61,1056.91,888.9,1058.76,899.12,1055.12Zm187.69-420.28c4.54.78,8.35,1.65,12.2,2,1.18.1,2.68-1.19,3.65-2.21.41-.43.17-2.15-.37-2.69C1099.66,629.25,1090.29,630.71,1086.81,634.84ZM1065.46,879c-3.93-2.78-17.39-.4-21.88,3.63C1051.2,882,1058.51,884.08,1065.46,879ZM627.1,666.78c2.78,2.27,4.77,5,6.19,4.78,1.88-.35,3.33-3.08,5-4.78-1.91-1.63-3.64-3.71-5.85-4.63C631.64,661.83,629.67,664.46,627.1,666.78ZM884.57,519.46c8.31.72,16.71,3.18,24.8-.79C901.1,519,892.68,516,884.57,519.46Zm-54,151.6-1.23,2.58c6.83,6.48,17,2.8,24.27,8l.69-2Zm238.25-24c3.13,1.44,6.69,3.21,10.37,4.72a30.49,30.49,0,0,0,7.89,2.43c1.15.14,2.53-1.63,3.8-2.54-1-1-2-2.66-3.18-2.8C1081.3,648,1074.81,647.54,1068.87,647Zm-190,454.54c2,7.2,11,9.11,18,3.44ZM640.73,632.68c-.24-3.75-5.13-8-8.45-7.62a4.13,4.13,0,0,0-2.71,1.8,3,3,0,0,0,.81,2.66,55.63,55.63,0,0,0,6.39,5.18,3.16,3.16,0,0,0,2.82.16C640.29,634.44,640.49,633.18,640.73,632.68ZM885.27,803.77c-.18.82-.36,1.64-.53,2.46,6.57,5.23,14.55,1.82,21.58,4.25.13-.78.27-1.55.41-2.33ZM888.66,972l29.75-4C907.46,965.21,897.86,966.94,888.66,972Zm180.27-212.85,0,2c3.57,2.52,7.74,2.76,11.93,1.82.87-.2,1.71-2.47,1.71-3.78,0-.75-1.81-2.24-2.65-2.14C1076.2,757.45,1072.58,758.37,1068.93,759.12ZM895.71,710.68c-5.59-7-12.41-8.76-19.09-4.94Zm78.17,260.5c9.65,2.38,18.47-.65,27.4-3l-.24-1.47Zm10.86-207.42,16.81,1.79C996.88,759.55,989.37,758.69,984.74,763.76Zm66,105.85c8.48,3.29,16,.08,15.46-6.62Zm-19.16,31.56c-7,1.28-14.21-5-21,.94C1017.58,901.9,1024.7,904.93,1031.59,901.17Zm55-298.35c0,.66-.1,1.33-.14,2,5.7.76,11.4,1.62,17.13,2.18.79.08,1.72-1.3,2.59-2-.75-.73-1.47-2-2.24-2.07C1098.16,602.74,1092.38,602.82,1086.6,602.82Zm-44.81,447.63c.08.79.15,1.59.23,2.39,3.4.51,6.81,1.33,10.22,1.37,1.45,0,2.93-1.58,4.4-2.44-1.24-.93-2.5-2.68-3.71-2.65A98.07,98.07,0,0,0,1041.79,1050.45Zm23.85-145c-.17-.94-.34-1.88-.52-2.82-7.65.56-14.33,4.56-21.54,6.65.17.64.34,1.27.52,1.91ZM849.23,734.29c-4.64-6.78-13.17-8.74-17.78-4.56ZM1039,752.85c7,.4,14.13,1.71,21.12.23C1052.92,747.13,1046.05,752.4,1039,752.85ZM886.47,1042.36l.3-1.77-21.56-3.41C869.36,1041.28,879.25,1043.32,886.47,1042.36ZM871.66,550.05l-.21,1.87,21.48,3.83c.13-.72.26-1.43.38-2.15C886.24,551.59,879.29,549,871.66,550.05Zm107.19,438.5A43.83,43.83,0,0,0,954.42,987c0,.5,0,1-.07,1.51Zm-5.69,26c-.1.81-.19,1.61-.28,2.41l24,3,.3-2.45Zm38.42-277.76c7.59,5.06,20.76,6.59,23.49,3ZM840.21,871.23c6.61,6.51,14.62,7.32,23.11,6.19Zm45.23,139.39.57-3c-3.79-1-7.55-2.17-11.38-2.95-.64-.13-2.2,1.3-2.28,2.11s.92,2.69,1.64,2.8C877.77,1010.18,881.62,1010.33,885.44,1010.62Zm167.1-60.77,0,.74c4,.3,8,.9,12,.71,1.17-.06,2.23-2.37,3.35-3.65-1.47-.61-3.14-2-4.39-1.68A111.46,111.46,0,0,0,1052.54,949.85Zm-92.18,87.53c0-.53,0-1.05,0-1.57-5.74-2.75-11.55-.94-17.34-.22v1.79Zm80.08-311.33c-.19,1-.37,1.9-.56,2.85l20.33,3.31c.14-.72.29-1.44.43-2.16ZM935.08,868c.07-.53.13-1.06.19-1.59L916.5,864.1c0,.45-.11.91-.17,1.36C922.32,868.61,928.48,870.27,935.08,868ZM1050.35,961c5.36,1.29,10.53,4.31,16.49,1.79C1065.53,959.11,1059.44,958.42,1050.35,961Zm1.61-44.7.19,1.6c3.35.18,6.76.78,10,.32,1.29-.19,2.24-2.75,3.34-4.23-1.47-.26-3-1-4.38-.7C1058,914,1055,915.23,1052,916.26ZM841.46,629l-.11,1.8,18.28,1.78.18-1.61C853.77,629.64,847.9,626.91,841.46,629Zm228,60.91-.17,2c4.43.79,8.85,1.68,13.3,2.27.85.12,1.87-.95,2.81-1.48-.86-.92-1.67-2.59-2.58-2.65C1078.39,689.73,1073.93,689.88,1069.47,689.88Zm-171,298.78c0-.55-.06-1.1-.1-1.64H879.92C886.05,992,892.26,988.83,898.44,988.66ZM922,570.14l15.42,4.66C933.15,568.61,926.53,566.83,922,570.14Zm71.6,80,0,1.73,21.25,2.75c.09-.81.17-1.62.26-2.43ZM886.93,872.72c-.08.43-.16.87-.25,1.3L906,875c0-.77.09-1.54.13-2.3ZM859.65,611.15c-5.84-3.45-11.81-7.22-19.17-4ZM1099,549.31c-.15,1-.29,1.92-.44,2.88,3.34.66,6.65,1.44,10,1.9a2,2,0,0,0,.68-3.9C1105.86,549.72,1102.42,549.57,1099,549.31Zm-183.09,579.5.54-1.84-20.36-6.44-.63,2Zm93.86-66.4c.11-.72.21-1.44.32-2.16l-18.33-2.57c-.09.74-.17,1.49-.25,2.23Zm-110.52,14.43c5.36,2.85,10.87,3.87,16.38,1.44l0-1.44Zm191.93-487.49-.25,2c5.27-.21,9.63,5.5,15.26,2.9l.36-2.08Zm-162,86.17-.21,1.75,20.75,2.92.21-1.71C942.93,678,936.32,674.52,929.16,675.52ZM1055.8,1004l1-1.5c-1.47-.67-3-2-4.38-1.87-3.38.26-7.55-.62-9.57,4.4Zm-6-70.22c3.54.32,6.18.82,8.79.7a8.44,8.44,0,0,0,4.22-1.87c.35-.25-.08-2.54-.42-2.61a9.77,9.77,0,0,0-4.85-.15C1055.14,930.6,1053,932,1049.75,933.73ZM847.56,542l.13-1.69H833.92l-.07,1.69Zm223,120.85c5.11,4.7,11,5.52,15.65,2.21ZM935.17,995.63c0-.48,0-1,0-1.42H919.39l.09,2.18ZM897.32,593l.08-2.14-16.69-1.07-.13,2.14ZM870.54,898.29c-8.93-3.34-11.35-2.91-13.2,2.49Zm197.4-166.84c3.83,4.11,10.56,4.63,13.43.64ZM898.15,1068.07c-6.12-4.1-10.67-3.35-12.11,2.36ZM1111.76,564.7l.3-2.51c-3.63-2.68-7.64-2-11.67-1l-.23,1.85ZM859.4,791.4c-.14.84-.27,1.69-.4,2.53l12.84,1.52.29-2.34Zm59.94-189.46-.33,2.53,13.76,1.88.3-3Zm-23.4-26.47.17-2.41-14.53-.95-.14,1.95Zm-54.2,113.39c.26-.86.51-1.72.77-2.58l-14.43-3.8-.55,1.77Zm31.38,68.89.18-1.58-20.25-2.29c-.06.59-.13,1.18-.2,1.77Zm133.3-205.67c-5.55-3.36-10-3.36-13.48,0Zm52.77,37.25-.33,1.84c3.77,1.64,7.48,3.85,11.69,2l.3-2.1Zm9.3-45.77c.09-.78.18-1.56.26-2.34h-10.87c0,.55-.05,1.09-.07,1.64ZM1057.57,973.9l.37,1.57,8.48-1.88-.79-2.71ZM888.33,952.46l.54,1.44,12.62-3.54C896.79,949.86,891.71,947.71,888.33,952.46ZM854.16,732.88l-.29,2,14.45,2.92.39-2ZM967.32,600.79c-.15.74-.29,1.48-.44,2.22l13.85,3c.13-.62.26-1.24.4-1.86Zm-48.5,422c-.1.69-.19,1.38-.29,2.06l12.53,1.63.27-2.28ZM940.13,1132a8.5,8.5,0,0,0,10,1.36L950,1132Zm.39-491.54.27-1.12L926.33,637l-.33,2.49ZM967,907.62l0,2.11,15.74-1.26,0-.85Zm103.23-209.71c-.09.82-.19,1.64-.28,2.47l11.62,1.87c.08-.7.16-1.39.23-2.09Zm-21-146.4.47-2.06L1037,547.22c-.12.72-.24,1.44-.37,2.15ZM1018.75,816c5.65,2.76,9.27,2.43,13-1.83ZM950,554.79l.23-2.4-12.59-.9c-.06.59-.11,1.19-.16,1.78Zm-47.4,107.06-.24,2,12,1.18c.06-.64.13-1.29.19-1.94Zm111.13,37.27c0-.44,0-.87,0-1.3h-10.81c0,.43,0,.86-.08,1.3Zm40.17-149.37-.06,2.31,10.18.78.15-2.23Zm-132,464.64.27-2.28-10.41-1.27c-.09.75-.18,1.5-.26,2.25Zm120.76-205.23-.25-2.57-10,.81.21,2.22Zm-209-159.87-.19,2.23H845l.11-.92Zm176.93,34,.18-1.92-13.27-1.53-.18,1.46ZM857.66,549.9l0,1.54h10.61V549.9Zm94.94,456.2c0-.41,0-.81,0-1.22l-10.57-.54,0,1.76Zm3.1,125.18c4.58,4.53,5.84,4.54,8.57.52Z"/><path class="cls-1" d="M813.57,1316.22c-22.1-.89-40.52-4.3-58.15-11.78-9.57-4.06-19.87-6.61-29-11.38-9.32-4.86-17.67-11.58-26.38-17.56a60.52,60.52,0,0,1-13.7-12.31c-6.69-8.45-4.25-15.57,4.95-21.14s19.23-9.69,29.28-13.43c32-11.91,65.34-17.8,99.25-20.39,38.74-3,77.24-1.67,114.62,10.43,12.58,4.07,26.08,5.69,37.11,14.21,6.77,5.23,7.31,6.19,5.16,14.21-3.34,12.42-11.29,20.86-22.09,27.05-9,5.17-17.56,11.67-27.19,15.14-15.44,5.57-31.59,9.2-47.48,13.48q-12.82,3.45-25.8,6.29c-4.73,1-9.63,1.27-14.41,2.14C830,1313,820.32,1314.91,813.57,1316.22Zm-26.1-45.31,0-1.63c15.81,0,31.63.44,47.42-.11,19.11-.67,38.2-1.91,57.26-3.41,12.29-1,24.51-2.76,36.74-4.36,7.92-1,15.89-2,23.66-3.78,4.22-1,7.93-4,12.09-5.43,3.89-1.37,8-3.35,7.68-7.3-.21-2.84-4-5.41-6.19-8.06-.19-.23-.66-.2-1-.33-16.18-6.92-32.72-12.68-50.26-15.06-3.44-.46-6.94-.47-10.36-1-13.19-2-26.33-5.62-39.54-5.84-19.38-.32-38.84,1.42-58.21,3-11.2.89-22.32,3-33.43,4.79s-22.34,3.12-33.08,6.2c-11.95,3.43-23.46,8.43-35,13.11-5,2-9.6,4.87-14.28,7.52-2.58,1.46-3.49,4-1,5.94,3.65,2.82,7.54,6,11.83,7.19a200.32,200.32,0,0,0,27.08,5.09c7.67,1,15.47.85,23.21,1.3C763.91,1269.41,775.69,1270.18,787.47,1270.91Zm-64.11,7.16c-.29.66-.59,1.32-.88,2,.78.39,1.54.83,2.34,1.16,4.46,1.79,9,3.38,13.37,5.37,19.09,8.73,39.24,11.21,60,10.85,27.13-.46,54-3.56,80.93-6.55a228.09,228.09,0,0,0,24.53-4.56c12.19-2.74,23.11-8.39,33.57-15.1,2.56-1.64,5.85-2.15,8.8-3.17a4.53,4.53,0,0,0-3.9-1.33c-7.2,1.1-14.36,2.43-21.57,3.46-14.58,2.08-29.14,4.47-43.78,5.87-14.45,1.39-29,1.27-43.51,2.6-34.37,3.18-68.68,3.34-103-.53A61.24,61.24,0,0,0,723.36,1278.07Z"/><path class="cls-1" d="M667.46,1118.84c1.22,1,2.37,1.45,2.67,2.23,2.91,7.61,6,15.22,4.54,23.68-.7,4.24-1.08,8.55-2,12.75-.8,3.72-3.2,5.61-8.08,4.56C665.54,1148,666.47,1133.84,667.46,1118.84Z"/><path class="cls-1" d="M730.58,1094.25c.14,4.64-3,7-10.47,7.34-5.08.21-5.34-4.23-6-7.57s4-7.2,8-7.27S730.46,1090.46,730.58,1094.25Z"/><path class="cls-1" d="M726.44,619.67c-5.2,0-9.65.25-14-.14-1.64-.14-3.14-1.81-4.7-2.78,1.7-1.21,3.42-3.47,5.09-3.42A17.47,17.47,0,0,1,726.44,619.67Z"/><path class="cls-1" d="M728.18,609.66c-4.41-1.73-8.91-5-13.22-4.74-3.87.21-7.53,4.25-11.8,6.93,3-6.79,9.53-11.64,14.19-10.92C723,601.81,727.67,605.56,728.18,609.66Z"/><path class="cls-1" d="M729.94,1142.3c-2.29-3.12-4.59-5.28-5.44-7.91-.32-1,2.52-4,4.32-4.44,2.85-.69,8.08,5,7,7.48C735.13,1139.09,732.8,1140,729.94,1142.3Z"/><path class="cls-1" d="M693.69,614.62c2.06,3.18,4.06,5.94,5.66,8.91.62,1.14.33,2.78.45,4.18-1.44-.14-3.07.12-4.27-.49C690.2,624.51,689.33,618.65,693.69,614.62Z"/><path class="cls-1" d="M737.4,636.66c-1.17-7.06-2.13-12.86-3.12-18.88C738.78,621,740.05,627.77,737.4,636.66Z"/><path class="cls-1" d="M661.63,669.74l3.18-6.63,2.24,1q-1.34,3.39-2.65,6.79Z"/><path class="cls-1" d="M679.44,895.67c-9.69,0-16.1-8.58-13.3-17.94,1-3.4,3.65-4.84,7.27-4.34,6.1.85,14.16,8.92,14.89,15C688.74,892.11,684.4,895.69,679.44,895.67Zm4.64-9.4-7.26-7.92c-1.3,1.82-4,4.12-3.58,5.36.8,2.37,3.18,4.44,5.37,5.95C679.18,890.06,681.49,887.93,684.08,886.27Z"/><path class="cls-1" d="M818.61,882.42c-9,0-16.37-12.83-11.49-20.48,1-1.48,4.29-2.87,5.74-2.3,3.32,1.3,6.85,3.3,9,6,1.89,2.4,2.12,6.15,2.89,9.35C825.72,879.13,822.91,882.43,818.61,882.42Zm.27-11.65-4.13-4.28c-.76,1.18-2.34,2.58-2.1,3.49.44,1.69,2,3.09,3,4.62Z"/><path class="cls-1" d="M790.31,829.19c1.09-2,1.75-5,3.38-5.66,2-.83,5.08-.35,7.12.7,5.62,2.89,9.81,12.44,8.44,18.37-.71,3.06-2.72,4.18-5.88,3.33C795,843.68,791.14,838.59,790.31,829.19Zm14.54,7.34c-2.19-2-3.81-3.57-5.57-5-.08-.06-2.09,1.8-1.94,2.08a66.67,66.67,0,0,0,3.9,5.89Z"/><path class="cls-1" d="M673.14,856.15c-.85,1.85-1.48,6-3.32,6.64a10.64,10.64,0,0,1-8.91-1.76,26.17,26.17,0,0,1-7.28-10.59c-1.44-4.06,2.41-9.35,6-10,5.74-1.09,10.55,1.68,11.84,7C672,849.83,672.41,852.35,673.14,856.15ZM668,845.4l-.83-1.75c-2.8,1.36-7,2.08-8,4.25s1.08,5.92,2.27,8.77c.37.89,2.37,1.7,3.44,1.51.74-.14,1.44-2,1.67-3.18C667.17,851.83,667.53,848.61,668,845.4Z"/><path class="cls-1" d="M676.53,923.39c-.29-5.74,2.63-6.8,5.54-7.31,4.44-.78,13.06,4.11,14.15,8.45.66,2.6.66,7.06-.86,8.15-2.57,1.84-7,3-9.9,2.06C679.76,932.83,676.2,928.23,676.53,923.39Zm7.1-2.41c-.51.55-2.23,1.59-2.56,3-.68,2.87,4,7.36,7.47,7.06a4.72,4.72,0,0,0,3.18-3C692.42,924.93,688.63,921.31,683.63,921Z"/><path class="cls-1" d="M619.7,798.08l-2.93,2.32c-.74-1-2-1.91-2-2.91-.05-.84,1.32-1.76,2.06-2.64C617.62,795.79,618.47,796.72,619.7,798.08Z"/><path class="cls-1" d="M505.79,996.61c-3.68,6.1-9.24,11.8-10.62,18.38-2.3,11-4.71,22.64,2.39,33.36a178.74,178.74,0,0,1,12.28,21.7c-1-.65-2.31-1.09-3-2-3.1-3.93-5.82-8.18-9.07-12-14.49-17-10.07-43,1.23-55.77,1.68-1.89,3.9-3.3,5.87-4.93Z"/><path class="cls-1" d="M543.39,1074.14c-4.17-3.76-5.33-8.78-5.16-14,.45-13.54,3.95-26,13.2-36.09l2.07.69c-.53,1.68-.61,3.73-1.66,5-7.68,9.12-6.74,20.85-9.49,31.41C541.31,1065.11,543,1069.78,543.39,1074.14Z"/><path class="cls-1" d="M710.78,1256.94c8.29-5.32,19.3.79,28.86-6.51-3.72-.87-6.17-1.2-8.42-2.06-1.44-.54-2.58-1.86-3.86-2.83,1-1,1.93-2.54,3.15-2.87,10.38-2.82,20.71-6.07,31.27-8,24.8-4.43,49.74-8,74.58-12.23,9.76-1.64,19.33-.39,29,.76,11.71,1.39,23.53,2.13,35.15,4,9.72,1.58,19.22,4.45,28.83,6.7,6.08,1.43,12.24,2.56,18.26,4.23a70.35,70.35,0,0,1,11.47,4.5c1.21.58,2.78,2.59,2.53,3.48a5.43,5.43,0,0,1-3.47,3.17c-7.94,1.82-16,3.35-24,4.92-38.35,7.48-77.25,8.92-116.14,10.24-21.14.72-42.31.89-63.46.74-11.76-.09-23.53-1.1-35.24-2.22-3.1-.3-6-2.56-9-3.92C710.45,1258.39,710.62,1257.67,710.78,1256.94Zm187.77-14.5c-8.34-5.39-63.67-7.14-75.47-2.39C830.81,1242.86,895.89,1244.93,898.55,1242.44ZM787,1248.93c-2.61-2.3-20.46-2.61-26.78-.48C766.82,1251.11,783.27,1251.4,787,1248.93Z"/><path class="cls-2" d="M175.86,567.44l-.47-.09a104.29,104.29,0,0,0-18.75-1.71,98.45,98.45,0,0,0-74.35,33.49,34.24,34.24,0,1,0-55.08,37.4A34.24,34.24,0,1,0,58.33,695.4c9,38.44,39.06,69,80.15,76.52l.46.08c2.67.49,5.35.85,8,1.13-2.44.09-4.89.23-7.33.49l-.48,0c-27,2.87-50.6,15.85-66.52,36.57s-23.1,48.2-20,77.14L57.67,935a31.75,31.75,0,0,0,31.59,28.49,33.36,33.36,0,0,0,3.45-.18l132.66-14.09a31.88,31.88,0,0,0,28.31-35l-5.06-47.63c-5.43-51.15-40.58-87.95-87.09-92.93C209,771.86,248,737.23,257,688.18c5.16-28.22-.48-56.16-15.87-78.68A100.14,100.14,0,0,0,175.86,567.44Zm-117,77ZM188.93,872.9l1.69,16L114,897l-1.69-16c-1.21-11.44,1.39-21.48,7.55-29s15.35-12.13,26.69-13.34l.49,0a50,50,0,0,1,5.28-.29C172.64,838.32,186.67,851.57,188.93,872.9Zm8.34-196.13c-3.45,18.88-19.06,31.56-38.84,31.56a45.86,45.86,0,0,1-8.21-.76l-.47-.08c-22.93-4.2-36.68-23.08-32.69-44.9C120.51,643.71,136.12,631,155.9,631a45.37,45.37,0,0,1,8.19.75l.49.09C187.51,636.06,201.26,655,197.27,676.77Z"/><path class="cls-2" d="M680.16,151.55c-13-34.48-41.69-38.47-62.15-38.47a192.91,192.91,0,0,0-20.31,1.2,217.44,217.44,0,0,1-21.89,1.65,24.27,24.27,0,0,1-6.64-.61c-.08-.17-.18-.4-.31-.73l-.12-.31c.38-.75,2.29-3,7.68-5a45.21,45.21,0,0,1,16.15-2.66A85.93,85.93,0,0,1,607.31,108a34.3,34.3,0,0,0,5.78.5,30.25,30.25,0,0,0,10.86-2A30.59,30.59,0,0,0,641.07,90.7,30.5,30.5,0,0,0,619.15,48a108.37,108.37,0,0,0-21.9-2.24A117,117,0,0,0,556,53.56c-40.18,15.12-58.87,50.54-45.48,86.12l.18.47c13,34.57,38.92,39,60.05,39h0a228.62,228.62,0,0,0,25-1.67A174.59,174.59,0,0,1,614,176.23c5,0,7.16.51,8,.77l.3.79a1.53,1.53,0,0,1,.11.36c-.12.62-2.27,3.76-9.92,6.64a53.4,53.4,0,0,1-19.19,3.5,69.79,69.79,0,0,1-19-2.84l-.3-.08a31.88,31.88,0,0,0-8-1,31.34,31.34,0,0,0-11.07,2,30.62,30.62,0,0,0-17.13,15.78A29.86,29.86,0,0,0,535,217.55l-21.32-6.21c7.54-20.32,4.52-41.67-9-61.49l-.27-.41c-11-16.12-25.7-26.32-42.5-29.49a64.46,64.46,0,0,0-11.89-1.1c-16,0-32.38,5.69-48.83,16.91l-49.05,33.47a31.89,31.89,0,0,0-8.35,44.26l66,96.73c-.36,0-.72-.05-1.08-.05a29.91,29.91,0,0,0-22.3,10l-42.93,48-7.35-6.56,34.79-38.93A29.77,29.77,0,1,0,326.54,283l-34.79,38.93-6.43-5.75,42.11-47.13A29.77,29.77,0,1,0,283,229.38l-63.17,70.69a31.7,31.7,0,0,0,2.53,45l92.55,82.71L201.22,369.52a31.61,31.61,0,0,0-28.8,56.27l44.13,22.6-80,14.36c-9.29,1.77-20.85,5.55-27.86,19.25l-1.78,3.48a31.71,31.71,0,0,0,13.83,42.87l121.15,62a31.6,31.6,0,1,0,28.8-56.26l-47.21-24.17,84.31-15.18c9.29-1.77,20.85-5.55,27.87-19.26l.56-1.08a31.88,31.88,0,0,0-3.22-34,31.47,31.47,0,0,0,10.12,1.7,31.87,31.87,0,0,0,23.73-10.69l64-71.6a29.93,29.93,0,0,0,7.64-21.38c0-.18,0-.34-.05-.52a31.09,31.09,0,0,0,7.66.95A31.83,31.83,0,0,0,472.44,289l-13.72-20.12,8.84-6,50.37,15.79a41.29,41.29,0,0,0,12.62,2.09,34.06,34.06,0,0,0,19.52-6.14A31.23,31.23,0,0,0,562.9,256a29.81,29.81,0,0,0,.64-10.15,122,122,0,0,0,25.33,2.67,123.89,123.89,0,0,0,43.77-8c43.11-16.23,61.83-51,47.69-88.55ZM454.58,195.66c-.89,3.36-3.93,7-8.57,10.11l-20.72,14.14-13-19,20.12-13.73c4.63-3.17,9-4.91,12.32-4.91,2,0,4.73.57,7.75,5l.29.41C454.68,190.43,455.27,193.06,454.58,195.66Z"/><path class="cls-2" d="M937.69,100.83C936.78,44.2,892.33,1.5,834.3,1.5c-.63,0-1.28,0-1.92,0-28.68.46-55,11.46-74,31a100.12,100.12,0,0,0-28.48,72.2v.49c.91,56.62,45.36,99.32,103.39,99.32h1.92c28.68-.47,55-11.47,74-31a100.1,100.1,0,0,0,28.48-72.18Zm-103,42.88H834c-21.71,0-38.36-17.24-38.73-40.1v-.49c-.38-23.31,15.45-40.49,37.63-40.85h.69c21.71,0,38.36,17.24,38.73,40.1v.49C872.69,126.17,856.86,143.35,834.68,143.71Z"/><path class="cls-2" d="M1095.41,45.37l-92.54-24.73a31.72,31.72,0,0,0-39,22.54L929.05,173.49a31.72,31.72,0,0,0,22.55,39,32.4,32.4,0,0,0,8.35,1.1,31.82,31.82,0,0,0,30.64-23.65l9.25-34.62L1051,169a30.49,30.49,0,0,0,7.87,1,30.14,30.14,0,0,0,7.69-59.27L1015.4,97.08l2.67-10,61.78,16.51a30.49,30.49,0,0,0,7.87,1,30.15,30.15,0,0,0,7.69-59.27Z"/><path class="cls-2" d="M1437.63,714.69a29.88,29.88,0,0,0-3.09,3.17,31.91,31.91,0,0,0,24.42,52.3c1,0,2,0,2.93-.13l135.81-12.22a31.85,31.85,0,0,0-2.78-63.58c-1,0-2,0-2.93.14l-110.87,10a30,30,0,0,0,2.81-22l-14.09-54.83L1573,601.05a31.86,31.86,0,0,0-7.8-62.71,32.3,32.3,0,0,0-8.05,1l-117.26,30.13a53.86,53.86,0,0,0,4.18-7.88l9.89-23.71a61.73,61.73,0,0,0,28.3,6.89h0c11.14,0,22.51-3,33.81-9l.43-.23c17.25-9.14,29-22.61,34-38.94,5.75-18.72,2.66-40.2-8.94-62.11L1513.78,382a31.73,31.73,0,0,0-28.06-17,32.21,32.21,0,0,0-15,3.75L1367.3,423.56c.12-.88.22-1.78.27-2.68a29.73,29.73,0,0,0-7.56-21.59l-43-48,7.34-6.57,34.83,38.89a30.06,30.06,0,0,0,22.34,10,29.49,29.49,0,0,0,19.69-7.54,29.92,29.92,0,0,0,2.32-42.21L1368.71,305l6.43-5.76,42.17,47.08a30.07,30.07,0,0,0,22.34,10,29.5,29.5,0,0,0,19.69-7.55,29.92,29.92,0,0,0,2.32-42.21L1398.4,236a31.69,31.69,0,0,0-45-2.47L1287,293c4.82-11.91,5-24,.47-36.62,11.94-3.26,21.82-10.55,29.49-21.81l.27-.4c8.49-12.48,11.42-26.07,8.7-40.41-3.27-17.24-15-33.15-33.9-46l-50.09-34.11a31.7,31.7,0,0,0-44.25,8.4l-75.09,110.27a31.69,31.69,0,0,0,8.4,44.25l51.7,35.21c18.26,12.43,35.67,18.74,51.77,18.74a55.63,55.63,0,0,0,14.29-1.83,31.58,31.58,0,0,0,2.85,38.79L1315.66,439a30,30,0,0,0,21,10,31.84,31.84,0,0,0,29.72,43,32.09,32.09,0,0,0,15-3.75l21.52-11.4,5,9.47-21.31,48.29c-5.07,11.37-4.92,22.27.44,32.39a31.47,31.47,0,0,0,23.06,16.32,31.79,31.79,0,0,0-6.53,28.42l22,85.68A30.12,30.12,0,0,0,1437.63,714.69Zm38-276.43,11.4,21.52c7.74,14.61,1.19,18.09-2.32,19.94l-.45.24a11.24,11.24,0,0,1-5.21,1.46c-5.78,0-10-6.39-12-10.2l-11.74-22.17ZM1230.55,265.65l-.28.41c-1.31,1.92-2.07,1.93-2.8,1.93h0c-1.26,0-4.91-.49-11.54-5l-26.19-17.83,6.51-9.56,25.18,17.15c7.44,5.06,9.35,8.56,9.83,9.83C1231.49,263.26,1231.74,263.91,1230.55,265.65Zm30.63-61.92-.28.42c-1.08,1.59-1.6,1.6-2.3,1.6h0c-1.3,0-5.07-.52-12.18-5.36l-17.9-12.2,5.68-8.34,19.93,13.57c5.91,4,7.34,7,7.64,7.8C1262,201.8,1262.16,202.3,1261.18,203.73Z"/><path class="cls-2" d="M1624,795.59a31.67,31.67,0,0,0-21.51-11.53l-135.41-13.79a31.61,31.61,0,0,0-6.4,62.89l52.77,5.37-73,44.77c-8,5-17.4,12.75-19,28.06l-.13,1.22a31.69,31.69,0,0,0,28.46,34.91l135.41,13.79A31.63,31.63,0,0,0,1619.85,933a31.59,31.59,0,0,0-28.24-34.64l-49.33-5,69.33-42.45c8-5,17.41-12.74,19-28.06l.4-3.88A31.66,31.66,0,0,0,1624,795.59Z"/><path class="cls-1" d="M91.33,950.35a18.67,18.67,0,0,1-20.7-16.72l-5-47.63c-5.68-53.45,27.09-94.28,75-99.37l.48,0c47.87-5.08,89,27.9,94.64,81.36l5.06,47.63A18.66,18.66,0,0,1,224,936.26Zm110.56-78.82c-3.25-30.62-26.1-49.08-56.23-45.88l-.48.05c-30.13,3.2-49.08,26.1-45.83,56.72l3.07,28.91L205,900.44Z"/><path class="cls-1" d="M141.29,759.18l-.48-.08C93,750.35,60.7,705.44,70.19,653.52s55-82.1,102.85-73.35l.48.09c47.84,8.75,80.11,53.66,70.62,105.58S189.12,767.93,141.29,759.18Zm25.63-140.13-.48-.09c-28.84-5.28-56.75,11.48-62.2,41.28s14.32,54.79,43.17,60.07l.48.09c28.84,5.27,56.75-11.48,62.2-41.29S195.77,624.32,166.92,619.05Z"/><path class="cls-1" d="M126.67,516.75a18.68,18.68,0,0,1-8.17-25.33l1.78-3.48c4.12-8,10.48-10.82,18.69-12.39l117.9-21.16-78.51-40.2a18.57,18.57,0,0,1,16.92-33.07l121.15,62a18.69,18.69,0,0,1,8.18,25.33l-.56,1.08c-4.12,8.05-10.49,10.83-18.7,12.39L183.18,504l81.56,41.76a18.57,18.57,0,1,1-16.92,33.06Z"/><path class="cls-1" d="M330.55,424.22l-99.48-88.9a18.66,18.66,0,0,1-1.49-26.56l63.17-70.7a16.91,16.91,0,0,1,23.81-1.34,16.69,16.69,0,0,1,1.15,23.65l-50.8,56.85,25.88,23.12,43.47-48.65a16.89,16.89,0,0,1,23.81-1.34A16.68,16.68,0,0,1,361.22,314l-43.47,48.65,26.78,23.94,51.62-57.76a16.88,16.88,0,0,1,23.8-1.34,16.68,16.68,0,0,1,1.16,23.64l-64,71.61A18.67,18.67,0,0,1,330.55,424.22Z"/><path class="cls-1" d="M354.56,206.14A18.66,18.66,0,0,1,359.5,180l49.05-33.47c18-12.26,35.33-16.72,50.95-13.77,13.25,2.5,25.06,10.71,34.15,24l.28.4c15.15,22.21,13.41,43.51,1.08,62.28l39.5,11.5c5.64,1.77,9.87,3.62,13.17,8.47,5.93,8.68,2.52,19.29-4.95,24.38-7.07,4.82-14.05,4.56-20.85,2.4l-56.45-17.69-24.82,16.94,21.07,30.88a18.82,18.82,0,1,1-31.09,21.21Zm98.8,10.39c15.14-10.33,18.31-24.33,10.18-36.23l-.27-.41c-9.09-13.32-23.06-13.85-38.2-3.52l-30.88,21.08L421.87,238Z"/><path class="cls-1" d="M560.67,231.78A17.59,17.59,0,0,1,549,221a17.31,17.31,0,0,1,10.36-22.43,18.09,18.09,0,0,1,11.26-.59c15.48,4.36,30.81,4.85,46.36-1,14.41-5.42,21-14.41,17.42-23.79l-.17-.46c-3.36-8.91-10.57-11.42-39.91-8.21-35.34,3.9-59.51,2.82-71.48-29l-.17-.46c-10.93-29,5.16-57,37.87-69.34,19.44-7.32,38.25-8.66,56.1-4.93a17.13,17.13,0,0,1,13,11,17.33,17.33,0,0,1-10.35,22.44,18.05,18.05,0,0,1-9.87.84c-14.25-2.47-26.69-2.23-37.66,1.9-13.5,5.08-18.26,13.93-15.33,21.7l.17.46c4,10.52,12.11,11.37,42.45,8,35.66-3.76,58.34,1,68.85,28.91l.17.46c12,31.79-5.56,58.75-40.1,71.75A110.4,110.4,0,0,1,560.67,231.78Z"/><path class="cls-1" d="M742.9,105v-.48c-.79-48.62,36.93-89.07,89.7-89.92S923.87,52.42,924.66,101v.49c.78,48.62-36.93,89.06-89.7,89.92S743.68,153.57,742.9,105Zm142.44-2.3v-.49c-.47-29.32-22.37-53.4-52.66-52.91S781.74,74,782.22,103.34v.49c.47,29.32,22.37,53.4,52.66,52.91S885.81,132,885.34,102.65Z"/><path class="cls-1" d="M976.47,46.55a18.66,18.66,0,0,1,23-13.32L1092,58A17.1,17.1,0,1,1,1083.21,91l-74.36-19.87-9.4,35.17,63.74,17a17.1,17.1,0,1,1-8.83,33l-63.74-17L978,186.57a18.82,18.82,0,0,1-36.36-9.71Z"/><path class="cls-1" d="M1208.44,129.4a18.67,18.67,0,0,1,26.14-5l50.09,34.11c16.15,11,25.85,24.11,28.43,37.69,2.06,10.87-.07,21-6.67,30.64l-.28.4c-10.86,16-25.4,19.07-39.35,17.85,12.1,17.4,15.73,33.77,2.8,52.75l-.27.41c-17.61,25.85-47.41,24.47-79.32,2.74l-51.71-35.21a18.67,18.67,0,0,1-5-26.14Zm.13,144.35c13.74,9.36,25.32,10.15,32.47-.35l.28-.41c6.46-9.49,3.38-20.16-12.58-31l-36-24.48-21.18,31.11Zm30.51-62.59c13.73,9.35,25.44,10.82,32.59.32l.28-.4c6.33-9.29,2.63-19.49-10.5-28.43l-30.7-20.91-20.35,29.89Z"/><path class="cls-1" d="M1262.75,332.23l99.37-89a18.67,18.67,0,0,1,26.57,1.46L1452,315.29a16.89,16.89,0,0,1-1.31,23.81,16.68,16.68,0,0,1-23.62-1.48l-50.87-56.78L1350.3,304l43.54,48.6a16.9,16.9,0,0,1-1.31,23.8,16.68,16.68,0,0,1-23.63-1.47l-43.53-48.59-26.76,24L1350.3,408A16.9,16.9,0,0,1,1349,431.8a16.7,16.7,0,0,1-23.63-1.47l-64.07-71.53A18.67,18.67,0,0,1,1262.75,332.23Z"/><path class="cls-1" d="M1476.83,380.3a18.66,18.66,0,0,1,25.43,7.82l27.79,52.47c10.18,19.22,12.67,37,8,52.17-4,12.89-13.43,23.71-27.69,31.26l-.43.23c-23.75,12.58-44.72,8.48-62-5.87l-15.84,38c-2.39,5.41-4.7,9.4-9.88,12.15-9.28,4.92-19.45.34-23.68-7.65-4-7.55-3-14.46,0-21l23.87-54.12-14.07-26.56-33,17.5a18.82,18.82,0,0,1-17.61-33.26Zm-21.34,97c8.58,16.19,22.13,20.91,34.87,14.16l.44-.23c14.25-7.55,16.33-21.37,7.75-37.57l-17.5-33-43.4,23Z"/><path class="cls-1" d="M1560.35,552a18.82,18.82,0,0,1,9.36,36.45L1454,618.16l17.33,67.45a17.11,17.11,0,1,1-33.14,8.51l-22-85.67a18.67,18.67,0,0,1,13.54-22.9Z"/><path class="cls-1" d="M1593.15,707.35a18.82,18.82,0,1,1,3.38,37.48l-135.81,12.22a18.82,18.82,0,1,1-3.37-37.48Z"/><path class="cls-1" d="M1601.2,797A18.66,18.66,0,0,1,1618,817.65l-.39,3.89c-.92,9-5.84,13.9-12.92,18.34l-102.17,62.54,87.76,8.94a18.57,18.57,0,1,1-3.76,36.95l-135.41-13.79a18.66,18.66,0,0,1-16.81-20.62l.12-1.22c.92-9,5.84-13.89,12.92-18.33l105.84-64.88L1462,820.19a18.57,18.57,0,1,1,3.76-37Z"/><circle class="cls-1" cx="50.29" cy="611.28" r="21.23"/><circle class="cls-1" cx="35.77" cy="669.68" r="21.23"/></g></g></svg>