<svg xmlns="http://www.w3.org/2000/svg" viewBox="0 0 405 450.56"><defs><style>.cls-1{fill:#ff8a8a;}</style></defs><g id="Layer_2" data-name="Layer 2"><g id="Capa_1" data-name="Capa 1"><path class="cls-1" d="M63.82,450.56A63.89,63.89,0,0,1,0,386.74V63.82A63.89,63.89,0,0,1,63.82,0H225.28a27.94,27.94,0,0,1,0,55.88H63.82a8,8,0,0,0-7.94,7.94V386.75a8,8,0,0,0,7.94,7.94H225.28a27.94,27.94,0,1,1,0,55.87Z"/><path class="cls-1" d="M268,360.86A27.94,27.94,0,0,1,248.37,313l60.6-59.8H124.46a27.94,27.94,0,0,1,0-55.88H309l-60.6-59.81a27.93,27.93,0,1,1,39.24-39.77L396.68,205.39A27.81,27.81,0,0,1,405,225.28a28.15,28.15,0,0,1-8.31,19.88L287.6,352.81A27.71,27.71,0,0,1,268,360.86Z"/></g></g></svg>