<svg xmlns="http://www.w3.org/2000/svg" viewBox="0 0 318 316.98"><defs><style>.cls-1{fill:#ffd2e3;}</style></defs><g id="Layer_2" data-name="Layer 2"><g id="Capa_1" data-name="Capa 1"><path class="cls-1" d="M44.11,317A44.15,44.15,0,0,1,0,272.88V44.11A44.16,44.16,0,0,1,44.11,0H158.49a18.69,18.69,0,1,1,0,37.37H44.11a6.74,6.74,0,0,0-6.74,6.74V272.88a6.74,6.74,0,0,0,6.74,6.73H158.49a18.69,18.69,0,1,1,0,37.37Z"/><path class="cls-1" d="M222,253.44a18.69,18.69,0,0,1-13.12-32l44.85-44.26H120.36a18.69,18.69,0,0,1,0-37.38H253.77L208.92,95.54a18.69,18.69,0,1,1,26.25-26.6l77.26,76.25a18.55,18.55,0,0,1,5.57,13.3,18.85,18.85,0,0,1-5.56,13.3l-77.28,76.26A18.55,18.55,0,0,1,222,253.44Z"/></g></g></svg>